<svg width="168" height="48" viewBox="0 0 168 48" fill="none" xmlns="http://www.w3.org/2000/svg">
<rect x="2.63574" y="3" width="43.4837" height="42" rx="9.37716" fill="#9EFF00"/>
<path d="M10.5603 16.0986L24.3775 24V39.0845L10.5603 31.4225L10.5603 16.0986Z" fill="#1A1A1A"/>
<path fill-rule="evenodd" clip-rule="evenodd" d="M25.5967 23.9894V37.0458L36.9756 30.7359V17.4824L25.5967 23.9894ZM38.1948 31.4225L24.3775 39.0845V24L10.5603 16.0986L24.3775 8.91547L38.1948 16.0986V31.4225ZM36.3364 16.4746L24.3775 10.2576L13.0476 16.1477L24.9779 22.97L36.3364 16.4746Z" fill="#1A1A1A"/>
<path d="M57.3289 35.0244V36H56.3533V35.0244H57.3289ZM57.3289 34.0488V35.0244H56.3533V34.0488H57.3289ZM57.3289 33.0732V34.0488H56.3533V33.0732H57.3289ZM57.3289 32.0976V33.0732H56.3533V32.0976H57.3289ZM57.3289 31.122V32.0976H56.3533V31.122H57.3289ZM57.3289 30.1463V31.122H56.3533V30.1463H57.3289ZM57.3289 29.1707V30.1463H56.3533V29.1707H57.3289ZM57.3289 28.1951V29.1707H56.3533V28.1951H57.3289ZM57.3289 27.2195V28.1951H56.3533V27.2195H57.3289ZM57.3289 26.2439V27.2195H56.3533V26.2439H57.3289ZM57.3289 25.2683V26.2439H56.3533V25.2683H57.3289ZM57.3289 24.2927V25.2683H56.3533V24.2927H57.3289ZM57.3289 23.3171V24.2927H56.3533V23.3171H57.3289ZM57.3289 22.3415V23.3171H56.3533V22.3415H57.3289ZM57.3289 21.3659V22.3415H56.3533V21.3659H57.3289ZM58.3045 21.3659V22.3415H57.3289V21.3659H58.3045ZM58.3045 22.3415V23.3171H57.3289V22.3415H58.3045ZM58.3045 23.3171V24.2927H57.3289V23.3171H58.3045ZM58.3045 24.2927V25.2683H57.3289V24.2927H58.3045ZM58.3045 25.2683V26.2439H57.3289V25.2683H58.3045ZM58.3045 26.2439V27.2195H57.3289V26.2439H58.3045ZM58.3045 27.2195V28.1951H57.3289V27.2195H58.3045ZM59.2801 28.1951V29.1707H58.3045V28.1951H59.2801ZM59.2801 29.1707V30.1463H58.3045V29.1707H59.2801ZM59.2801 30.1463V31.122H58.3045V30.1463H59.2801ZM59.2801 31.122V32.0976H58.3045V31.122H59.2801ZM59.2801 32.0976V33.0732H58.3045V32.0976H59.2801ZM59.2801 33.0732V34.0488H58.3045V33.0732H59.2801ZM59.2801 34.0488V35.0244H58.3045V34.0488H59.2801ZM59.2801 35.0244V36H58.3045V35.0244H59.2801ZM60.2558 35.0244V36H59.2801V35.0244H60.2558ZM61.2314 35.0244V36H60.2558V35.0244H61.2314ZM61.2314 34.0488V35.0244H60.2558V34.0488H61.2314ZM61.2314 33.0732V34.0488H60.2558V33.0732H61.2314ZM61.2314 32.0976V33.0732H60.2558V32.0976H61.2314ZM61.2314 31.122V32.0976H60.2558V31.122H61.2314ZM61.2314 30.1463V31.122H60.2558V30.1463H61.2314ZM61.2314 29.1707V30.1463H60.2558V29.1707H61.2314ZM61.2314 28.1951V29.1707H60.2558V28.1951H61.2314ZM60.2558 28.1951V29.1707H59.2801V28.1951H60.2558ZM60.2558 27.2195V28.1951H59.2801V27.2195H60.2558ZM60.2558 29.1707V30.1463H59.2801V29.1707H60.2558ZM60.2558 30.1463V31.122H59.2801V30.1463H60.2558ZM60.2558 31.122V32.0976H59.2801V31.122H60.2558ZM60.2558 32.0976V33.0732H59.2801V32.0976H60.2558ZM60.2558 33.0732V34.0488H59.2801V33.0732H60.2558ZM60.2558 34.0488V35.0244H59.2801V34.0488H60.2558ZM58.3045 35.0244V36H57.3289V35.0244H58.3045ZM58.3045 34.0488V35.0244H57.3289V34.0488H58.3045ZM58.3045 33.0732V34.0488H57.3289V33.0732H58.3045ZM58.3045 32.0976V33.0732H57.3289V32.0976H58.3045ZM58.3045 31.122V32.0976H57.3289V31.122H58.3045ZM58.3045 30.1463V31.122H57.3289V30.1463H58.3045ZM58.3045 29.1707V30.1463H57.3289V29.1707H58.3045ZM58.3045 28.1951V29.1707H57.3289V28.1951H58.3045ZM57.3289 11.6098V12.5854H56.3533V11.6098H57.3289ZM57.3289 12.5854V13.561H56.3533V12.5854H57.3289ZM57.3289 13.561V14.5366H56.3533V13.561H57.3289ZM57.3289 14.5366V15.5122H56.3533V14.5366H57.3289ZM57.3289 15.5122V16.4878H56.3533V15.5122H57.3289ZM57.3289 16.4878V17.4634H56.3533V16.4878H57.3289ZM57.3289 17.4634V18.439H56.3533V17.4634H57.3289ZM57.3289 18.439V19.4146H56.3533V18.439H57.3289ZM57.3289 19.4146V20.3902H56.3533V19.4146H57.3289ZM57.3289 20.3902V21.3659H56.3533V20.3902H57.3289ZM60.2558 11.6098V12.5854H59.2801V11.6098H60.2558ZM60.2558 12.5854V13.561H59.2801V12.5854H60.2558ZM60.2558 13.561V14.5366H59.2801V13.561H60.2558ZM60.2558 14.5366V15.5122H59.2801V14.5366H60.2558ZM60.2558 15.5122V16.4878H59.2801V15.5122H60.2558ZM60.2558 16.4878V17.4634H59.2801V16.4878H60.2558ZM60.2558 18.439V19.4146H59.2801V18.439H60.2558ZM60.2558 19.4146V20.3902H59.2801V19.4146H60.2558ZM60.2558 20.3902V21.3659H59.2801V20.3902H60.2558ZM60.2558 21.3659V22.3415H59.2801V21.3659H60.2558ZM60.2558 22.3415V23.3171H59.2801V22.3415H60.2558ZM60.2558 23.3171V24.2927H59.2801V23.3171H60.2558ZM60.2558 24.2927V25.2683H59.2801V24.2927H60.2558ZM61.2314 25.2683V26.2439H60.2558V25.2683H61.2314ZM61.2314 26.2439V27.2195H60.2558V26.2439H61.2314ZM61.2314 27.2195V28.1951H60.2558V27.2195H61.2314ZM61.2314 24.2927V25.2683H60.2558V24.2927H61.2314ZM61.2314 23.3171V24.2927H60.2558V23.3171H61.2314ZM61.2314 22.3415V23.3171H60.2558V22.3415H61.2314ZM61.2314 21.3659V22.3415H60.2558V21.3659H61.2314ZM61.2314 20.3902V21.3659H60.2558V20.3902H61.2314ZM61.2314 19.4146V20.3902H60.2558V19.4146H61.2314ZM61.2314 18.439V19.4146H60.2558V18.439H61.2314ZM61.2314 17.4634V18.439H60.2558V17.4634H61.2314ZM61.2314 16.4878V17.4634H60.2558V16.4878H61.2314ZM61.2314 15.5122V16.4878H60.2558V15.5122H61.2314ZM60.2558 17.4634V18.439H59.2801V17.4634H60.2558ZM61.2314 14.5366V15.5122H60.2558V14.5366H61.2314ZM61.2314 13.561V14.5366H60.2558V13.561H61.2314ZM61.2314 12.5854V13.561H60.2558V12.5854H61.2314ZM61.2314 11.6098V12.5854H60.2558V11.6098H61.2314ZM59.2801 11.6098V12.5854H58.3045V11.6098H59.2801ZM58.3045 11.6098V12.5854H57.3289V11.6098H58.3045ZM58.3045 12.5854V13.561H57.3289V12.5854H58.3045ZM59.2801 12.5854V13.561H58.3045V12.5854H59.2801ZM59.2801 13.561V14.5366H58.3045V13.561H59.2801ZM59.2801 14.5366V15.5122H58.3045V14.5366H59.2801ZM59.2801 15.5122V16.4878H58.3045V15.5122H59.2801ZM59.2801 16.4878V17.4634H58.3045V16.4878H59.2801ZM59.2801 17.4634V18.439H58.3045V17.4634H59.2801ZM59.2801 18.439V19.4146H58.3045V18.439H59.2801ZM58.3045 19.4146V20.3902H57.3289V19.4146H58.3045ZM58.3045 20.3902V21.3659H57.3289V20.3902H58.3045ZM58.3045 18.439V19.4146H57.3289V18.439H58.3045ZM58.3045 17.4634V18.439H57.3289V17.4634H58.3045ZM58.3045 16.4878V17.4634H57.3289V16.4878H58.3045ZM58.3045 15.5122V16.4878H57.3289V15.5122H58.3045ZM58.3045 14.5366V15.5122H57.3289V14.5366H58.3045ZM58.3045 13.561V14.5366H57.3289V13.561H58.3045ZM59.2801 19.4146V20.3902H58.3045V19.4146H59.2801ZM59.2801 20.3902V21.3659H58.3045V20.3902H59.2801ZM59.2801 21.3659V22.3415H58.3045V21.3659H59.2801ZM59.2801 22.3415V23.3171H58.3045V22.3415H59.2801ZM59.2801 23.3171V24.2927H58.3045V23.3171H59.2801ZM59.2801 24.2927V25.2683H58.3045V24.2927H59.2801ZM59.2801 25.2683V26.2439H58.3045V25.2683H59.2801ZM59.2801 26.2439V27.2195H58.3045V26.2439H59.2801ZM59.2801 27.2195V28.1951H58.3045V27.2195H59.2801ZM60.2558 26.2439V27.2195H59.2801V26.2439H60.2558ZM60.2558 25.2683V26.2439H59.2801V25.2683H60.2558ZM75.8655 11.6098V12.5854H74.8899V11.6098H75.8655ZM75.8655 12.5854V13.561H74.8899V12.5854H75.8655ZM75.8655 13.561V14.5366H74.8899V13.561H75.8655ZM75.8655 15.5122V16.4878H74.8899V15.5122H75.8655ZM75.8655 16.4878V17.4634H74.8899V16.4878H75.8655ZM75.8655 17.4634V18.439H74.8899V17.4634H75.8655ZM75.8655 18.439V19.4146H74.8899V18.439H75.8655ZM75.8655 19.4146V20.3902H74.8899V19.4146H75.8655ZM75.8655 20.3902V21.3659H74.8899V20.3902H75.8655ZM75.8655 21.3659V22.3415H74.8899V21.3659H75.8655ZM76.8411 22.3415V23.3171H75.8655V22.3415H76.8411ZM76.8411 23.3171V24.2927H75.8655V23.3171H76.8411ZM76.8411 24.2927V25.2683H75.8655V24.2927H76.8411ZM76.8411 25.2683V26.2439H75.8655V25.2683H76.8411ZM76.8411 26.2439V27.2195H75.8655V26.2439H76.8411ZM76.8411 27.2195V28.1951H75.8655V27.2195H76.8411ZM77.8167 27.2195V28.1951H76.8411V27.2195H77.8167ZM77.8167 28.1951V29.1707H76.8411V28.1951H77.8167ZM77.8167 29.1707V30.1463H76.8411V29.1707H77.8167ZM77.8167 30.1463V31.122H76.8411V30.1463H77.8167ZM77.8167 31.122V32.0976H76.8411V31.122H77.8167ZM77.8167 32.0976V33.0732H76.8411V32.0976H77.8167ZM77.8167 33.0732V34.0488H76.8411V33.0732H77.8167ZM77.8167 34.0488V35.0244H76.8411V34.0488H77.8167ZM77.8167 35.0244V36H76.8411V35.0244H77.8167ZM76.8411 35.0244V36H75.8655V35.0244H76.8411ZM76.8411 34.0488V35.0244H75.8655V34.0488H76.8411ZM76.8411 33.0732V34.0488H75.8655V33.0732H76.8411ZM76.8411 32.0976V33.0732H75.8655V32.0976H76.8411ZM76.8411 31.122V32.0976H75.8655V31.122H76.8411ZM76.8411 30.1463V31.122H75.8655V30.1463H76.8411ZM76.8411 29.1707V30.1463H75.8655V29.1707H76.8411ZM75.8655 29.1707V30.1463H74.8899V29.1707H75.8655ZM75.8655 28.1951V29.1707H74.8899V28.1951H75.8655ZM76.8411 28.1951V29.1707H75.8655V28.1951H76.8411ZM75.8655 22.3415V23.3171H74.8899V22.3415H75.8655ZM75.8655 23.3171V24.2927H74.8899V23.3171H75.8655ZM75.8655 24.2927V25.2683H74.8899V24.2927H75.8655ZM75.8655 25.2683V26.2439H74.8899V25.2683H75.8655ZM75.8655 26.2439V27.2195H74.8899V26.2439H75.8655ZM75.8655 27.2195V28.1951H74.8899V27.2195H75.8655ZM75.8655 14.5366V15.5122H74.8899V14.5366H75.8655ZM75.8655 30.1463V31.122H74.8899V30.1463H75.8655ZM75.8655 31.122V32.0976H74.8899V31.122H75.8655ZM75.8655 32.0976V33.0732H74.8899V32.0976H75.8655ZM75.8655 33.0732V34.0488H74.8899V33.0732H75.8655ZM75.8655 34.0488V35.0244H74.8899V34.0488H75.8655ZM75.8655 35.0244V36H74.8899V35.0244H75.8655ZM78.7923 35.0244V36H77.8167V35.0244H78.7923ZM79.768 35.0244V36H78.7923V35.0244H79.768ZM79.768 34.0488V35.0244H78.7923V34.0488H79.768ZM79.768 33.0732V34.0488H78.7923V33.0732H79.768ZM79.768 32.0976V33.0732H78.7923V32.0976H79.768ZM79.768 31.122V32.0976H78.7923V31.122H79.768ZM79.768 30.1463V31.122H78.7923V30.1463H79.768ZM79.768 29.1707V30.1463H78.7923V29.1707H79.768ZM79.768 28.1951V29.1707H78.7923V28.1951H79.768ZM79.768 27.2195V28.1951H78.7923V27.2195H79.768ZM79.768 26.2439V27.2195H78.7923V26.2439H79.768ZM79.768 25.2683V26.2439H78.7923V25.2683H79.768ZM79.768 24.2927V25.2683H78.7923V24.2927H79.768ZM79.768 23.3171V24.2927H78.7923V23.3171H79.768ZM79.768 22.3415V23.3171H78.7923V22.3415H79.768ZM79.768 21.3659V22.3415H78.7923V21.3659H79.768ZM79.768 20.3902V21.3659H78.7923V20.3902H79.768ZM79.768 19.4146V20.3902H78.7923V19.4146H79.768ZM79.768 18.439V19.4146H78.7923V18.439H79.768ZM79.768 17.4634V18.439H78.7923V17.4634H79.768ZM76.8411 11.6098V12.5854H75.8655V11.6098H76.8411ZM77.8167 11.6098V12.5854H76.8411V11.6098H77.8167ZM78.7923 11.6098V12.5854H77.8167V11.6098H78.7923ZM79.768 11.6098V12.5854H78.7923V11.6098H79.768ZM79.768 12.5854V13.561H78.7923V12.5854H79.768ZM79.768 13.561V14.5366H78.7923V13.561H79.768ZM79.768 14.5366V15.5122H78.7923V14.5366H79.768ZM79.768 15.5122V16.4878H78.7923V15.5122H79.768ZM79.768 16.4878V17.4634H78.7923V16.4878H79.768ZM76.8411 12.5854V13.561H75.8655V12.5854H76.8411ZM77.8167 12.5854V13.561H76.8411V12.5854H77.8167ZM78.7923 12.5854V13.561H77.8167V12.5854H78.7923ZM78.7923 13.561V14.5366H77.8167V13.561H78.7923ZM78.7923 14.5366V15.5122H77.8167V14.5366H78.7923ZM78.7923 15.5122V16.4878H77.8167V15.5122H78.7923ZM78.7923 16.4878V17.4634H77.8167V16.4878H78.7923ZM77.8167 16.4878V17.4634H76.8411V16.4878H77.8167ZM77.8167 15.5122V16.4878H76.8411V15.5122H77.8167ZM77.8167 14.5366V15.5122H76.8411V14.5366H77.8167ZM77.8167 13.561V14.5366H76.8411V13.561H77.8167ZM76.8411 13.561V14.5366H75.8655V13.561H76.8411ZM76.8411 14.5366V15.5122H75.8655V14.5366H76.8411ZM76.8411 15.5122V16.4878H75.8655V15.5122H76.8411ZM76.8411 16.4878V17.4634H75.8655V16.4878H76.8411ZM76.8411 17.4634V18.439H75.8655V17.4634H76.8411ZM76.8411 18.439V19.4146H75.8655V18.439H76.8411ZM76.8411 19.4146V20.3902H75.8655V19.4146H76.8411ZM76.8411 20.3902V21.3659H75.8655V20.3902H76.8411ZM77.8167 20.3902V21.3659H76.8411V20.3902H77.8167ZM77.8167 19.4146V20.3902H76.8411V19.4146H77.8167ZM77.8167 18.439V19.4146H76.8411V18.439H77.8167ZM77.8167 17.4634V18.439H76.8411V17.4634H77.8167ZM78.7923 17.4634V18.439H77.8167V17.4634H78.7923ZM78.7923 18.439V19.4146H77.8167V18.439H78.7923ZM78.7923 19.4146V20.3902H77.8167V19.4146H78.7923ZM78.7923 20.3902V21.3659H77.8167V20.3902H78.7923ZM78.7923 21.3659V22.3415H77.8167V21.3659H78.7923ZM78.7923 22.3415V23.3171H77.8167V22.3415H78.7923ZM78.7923 23.3171V24.2927H77.8167V23.3171H78.7923ZM78.7923 24.2927V25.2683H77.8167V24.2927H78.7923ZM78.7923 25.2683V26.2439H77.8167V25.2683H78.7923ZM78.7923 26.2439V27.2195H77.8167V26.2439H78.7923ZM77.8167 26.2439V27.2195H76.8411V26.2439H77.8167ZM77.8167 25.2683V26.2439H76.8411V25.2683H77.8167ZM77.8167 24.2927V25.2683H76.8411V24.2927H77.8167ZM77.8167 23.3171V24.2927H76.8411V23.3171H77.8167ZM77.8167 22.3415V23.3171H76.8411V22.3415H77.8167ZM76.8411 21.3659V22.3415H75.8655V21.3659H76.8411ZM77.8167 21.3659V22.3415H76.8411V21.3659H77.8167ZM78.7923 27.2195V28.1951H77.8167V27.2195H78.7923ZM78.7923 28.1951V29.1707H77.8167V28.1951H78.7923ZM78.7923 29.1707V30.1463H77.8167V29.1707H78.7923ZM78.7923 30.1463V31.122H77.8167V30.1463H78.7923ZM78.7923 31.122V32.0976H77.8167V31.122H78.7923ZM78.7923 32.0976V33.0732H77.8167V32.0976H78.7923ZM78.7923 33.0732V34.0488H77.8167V33.0732H78.7923ZM78.7923 34.0488V35.0244H77.8167V34.0488H78.7923ZM68.0606 23.3171V24.2927H67.085V23.3171H68.0606ZM68.0606 22.3415V23.3171H67.085V22.3415H68.0606ZM68.0606 21.3659V22.3415H67.085V21.3659H68.0606ZM68.0606 20.3902V21.3659H67.085V20.3902H68.0606ZM68.0606 19.4146V20.3902H67.085V19.4146H68.0606ZM68.0606 18.439V19.4146H67.085V18.439H68.0606ZM68.0606 24.2927V25.2683H67.085V24.2927H68.0606ZM70.0119 17.4634V18.439H69.0362V17.4634H70.0119ZM70.9875 16.4878V17.4634H70.0119V16.4878H70.9875ZM71.9631 15.5122V16.4878H70.9875V15.5122H71.9631ZM72.9387 14.5366V15.5122H71.9631V14.5366H72.9387ZM67.085 17.4634V18.439H66.1094V17.4634H67.085ZM66.1094 16.4878V17.4634H65.1338V16.4878H66.1094ZM65.1338 15.5122V16.4878H64.1582V15.5122H65.1338ZM64.1582 14.5366V15.5122H63.1826V14.5366H64.1582ZM70.0119 23.3171V24.2927H69.0362V23.3171H70.0119ZM70.9875 22.3415V23.3171H70.0119V22.3415H70.9875ZM71.9631 21.3659V22.3415H70.9875V21.3659H71.9631ZM72.9387 20.3902V21.3659H71.9631V20.3902H72.9387ZM67.085 23.3171V24.2927H66.1094V23.3171H67.085ZM66.1094 22.3415V23.3171H65.1338V22.3415H66.1094ZM65.1338 21.3659V22.3415H64.1582V21.3659H65.1338ZM64.1582 20.3902V21.3659H63.1826V20.3902H64.1582ZM62.207 12.5854V13.561H61.2314V12.5854H62.207ZM63.1826 13.561V14.5366H62.207V13.561H63.1826ZM73.9143 13.561V14.5366H72.9387V13.561H73.9143ZM74.8899 12.5854V13.561H73.9143V12.5854H74.8899ZM63.1826 16.4878V17.4634H62.207V16.4878H63.1826ZM63.1826 19.4146V20.3902H62.207V19.4146H63.1826ZM63.1826 18.439V19.4146H62.207V18.439H63.1826ZM62.207 18.439V19.4146H61.2314V18.439H62.207ZM73.9143 19.4146V20.3902H72.9387V19.4146H73.9143ZM74.8899 18.439V19.4146H73.9143V18.439H74.8899ZM74.8899 17.4634V18.439H73.9143V17.4634H74.8899ZM74.8899 16.4878V17.4634H73.9143V16.4878H74.8899ZM74.8899 15.5122V16.4878H73.9143V15.5122H74.8899ZM74.8899 14.5366V15.5122H73.9143V14.5366H74.8899ZM74.8899 13.561V14.5366H73.9143V13.561H74.8899ZM73.9143 14.5366V15.5122H72.9387V14.5366H73.9143ZM73.9143 15.5122V16.4878H72.9387V15.5122H73.9143ZM73.9143 16.4878V17.4634H72.9387V16.4878H73.9143ZM73.9143 17.4634V18.439H72.9387V17.4634H73.9143ZM73.9143 18.439V19.4146H72.9387V18.439H73.9143ZM72.9387 15.5122V16.4878H71.9631V15.5122H72.9387ZM72.9387 16.4878V17.4634H71.9631V16.4878H72.9387ZM72.9387 17.4634V18.439H71.9631V17.4634H72.9387ZM72.9387 18.439V19.4146H71.9631V18.439H72.9387ZM72.9387 19.4146V20.3902H71.9631V19.4146H72.9387ZM71.9631 16.4878V17.4634H70.9875V16.4878H71.9631ZM71.9631 17.4634V18.439H70.9875V17.4634H71.9631ZM71.9631 18.439V19.4146H70.9875V18.439H71.9631ZM71.9631 19.4146V20.3902H70.9875V19.4146H71.9631ZM71.9631 20.3902V21.3659H70.9875V20.3902H71.9631ZM70.9875 17.4634V18.439H70.0119V17.4634H70.9875ZM70.9875 18.439V19.4146H70.0119V18.439H70.9875ZM70.9875 19.4146V20.3902H70.0119V19.4146H70.9875ZM70.9875 20.3902V21.3659H70.0119V20.3902H70.9875ZM70.9875 21.3659V22.3415H70.0119V21.3659H70.9875ZM70.0119 18.439V19.4146H69.0362V18.439H70.0119ZM70.0119 19.4146V20.3902H69.0362V19.4146H70.0119ZM70.0119 20.3902V21.3659H69.0362V20.3902H70.0119ZM70.0119 21.3659V22.3415H69.0362V21.3659H70.0119ZM70.0119 22.3415V23.3171H69.0362V22.3415H70.0119ZM67.085 22.3415V23.3171H66.1094V22.3415H67.085ZM67.085 21.3659V22.3415H66.1094V21.3659H67.085ZM66.1094 21.3659V22.3415H65.1338V21.3659H66.1094ZM66.1094 20.3902V21.3659H65.1338V20.3902H66.1094ZM65.1338 20.3902V21.3659H64.1582V20.3902H65.1338ZM65.1338 19.4146V20.3902H64.1582V19.4146H65.1338ZM64.1582 19.4146V20.3902H63.1826V19.4146H64.1582ZM64.1582 18.439V19.4146H63.1826V18.439H64.1582ZM63.1826 17.4634V18.439H62.207V17.4634H63.1826ZM62.207 17.4634V18.439H61.2314V17.4634H62.207ZM62.207 16.4878V17.4634H61.2314V16.4878H62.207ZM62.207 15.5122V16.4878H61.2314V15.5122H62.207ZM62.207 14.5366V15.5122H61.2314V14.5366H62.207ZM62.207 13.561V14.5366H61.2314V13.561H62.207ZM63.1826 14.5366V15.5122H62.207V14.5366H63.1826ZM63.1826 15.5122V16.4878H62.207V15.5122H63.1826ZM64.1582 15.5122V16.4878H63.1826V15.5122H64.1582ZM64.1582 16.4878V17.4634H63.1826V16.4878H64.1582ZM65.1338 16.4878V17.4634H64.1582V16.4878H65.1338ZM65.1338 17.4634V18.439H64.1582V17.4634H65.1338ZM66.1094 17.4634V18.439H65.1338V17.4634H66.1094ZM66.1094 18.439V19.4146H65.1338V18.439H66.1094ZM67.085 18.439V19.4146H66.1094V18.439H67.085ZM67.085 19.4146V20.3902H66.1094V19.4146H67.085ZM67.085 20.3902V21.3659H66.1094V20.3902H67.085ZM66.1094 19.4146V20.3902H65.1338V19.4146H66.1094ZM65.1338 18.439V19.4146H64.1582V18.439H65.1338ZM64.1582 17.4634V18.439H63.1826V17.4634H64.1582ZM69.0362 18.439V19.4146H68.0606V18.439H69.0362ZM69.0362 19.4146V20.3902H68.0606V19.4146H69.0362ZM69.0362 20.3902V21.3659H68.0606V20.3902H69.0362ZM69.0362 21.3659V22.3415H68.0606V21.3659H69.0362ZM69.0362 22.3415V23.3171H68.0606V22.3415H69.0362ZM69.0362 23.3171V24.2927H68.0606V23.3171H69.0362ZM69.0362 24.2927V25.2683H68.0606V24.2927H69.0362ZM84.6336 35.0244V36H83.658V35.0244H84.6336ZM84.6336 34.0488V35.0244H83.658V34.0488H84.6336ZM84.6336 33.0732V34.0488H83.658V33.0732H84.6336ZM84.6336 32.0976V33.0732H83.658V32.0976H84.6336ZM84.6336 31.122V32.0976H83.658V31.122H84.6336ZM84.6336 30.1463V31.122H83.658V30.1463H84.6336ZM84.6336 29.1707V30.1463H83.658V29.1707H84.6336ZM84.6336 28.1951V29.1707H83.658V28.1951H84.6336ZM84.6336 27.2195V28.1951H83.658V27.2195H84.6336ZM84.6336 26.2439V27.2195H83.658V26.2439H84.6336ZM84.6336 25.2683V26.2439H83.658V25.2683H84.6336ZM84.6336 24.2927V25.2683H83.658V24.2927H84.6336ZM84.6336 23.3171V24.2927H83.658V23.3171H84.6336ZM84.6336 22.3415V23.3171H83.658V22.3415H84.6336ZM84.6336 21.3659V22.3415H83.658V21.3659H84.6336ZM85.6092 21.3659V22.3415H84.6336V21.3659H85.6092ZM85.6092 22.3415V23.3171H84.6336V22.3415H85.6092ZM85.6092 23.3171V24.2927H84.6336V23.3171H85.6092ZM85.6092 24.2927V25.2683H84.6336V24.2927H85.6092ZM85.6092 25.2683V26.2439H84.6336V25.2683H85.6092ZM85.6092 26.2439V27.2195H84.6336V26.2439H85.6092ZM85.6092 27.2195V28.1951H84.6336V27.2195H85.6092ZM86.5848 28.1951V29.1707H85.6092V28.1951H86.5848ZM86.5848 29.1707V30.1463H85.6092V29.1707H86.5848ZM86.5848 30.1463V31.122H85.6092V30.1463H86.5848ZM86.5848 31.122V32.0976H85.6092V31.122H86.5848ZM86.5848 32.0976V33.0732H85.6092V32.0976H86.5848ZM86.5848 33.0732V34.0488H85.6092V33.0732H86.5848ZM86.5848 34.0488V35.0244H85.6092V34.0488H86.5848ZM86.5848 35.0244V36H85.6092V35.0244H86.5848ZM87.5604 35.0244V36H86.5848V35.0244H87.5604ZM88.5361 35.0244V36H87.5604V35.0244H88.5361ZM88.5361 34.0488V35.0244H87.5604V34.0488H88.5361ZM88.5361 33.0732V34.0488H87.5604V33.0732H88.5361ZM88.5361 32.0976V33.0732H87.5604V32.0976H88.5361ZM88.5361 31.122V32.0976H87.5604V31.122H88.5361ZM88.5361 30.1463V31.122H87.5604V30.1463H88.5361ZM88.5361 29.1707V30.1463H87.5604V29.1707H88.5361ZM88.5361 28.1951V29.1707H87.5604V28.1951H88.5361ZM87.5604 28.1951V29.1707H86.5848V28.1951H87.5604ZM87.5604 27.2195V28.1951H86.5848V27.2195H87.5604ZM87.5604 29.1707V30.1463H86.5848V29.1707H87.5604ZM87.5604 30.1463V31.122H86.5848V30.1463H87.5604ZM87.5604 31.122V32.0976H86.5848V31.122H87.5604ZM87.5604 32.0976V33.0732H86.5848V32.0976H87.5604ZM87.5604 33.0732V34.0488H86.5848V33.0732H87.5604ZM87.5604 34.0488V35.0244H86.5848V34.0488H87.5604ZM85.6092 35.0244V36H84.6336V35.0244H85.6092ZM85.6092 34.0488V35.0244H84.6336V34.0488H85.6092ZM85.6092 33.0732V34.0488H84.6336V33.0732H85.6092ZM85.6092 32.0976V33.0732H84.6336V32.0976H85.6092ZM85.6092 31.122V32.0976H84.6336V31.122H85.6092ZM85.6092 30.1463V31.122H84.6336V30.1463H85.6092ZM85.6092 29.1707V30.1463H84.6336V29.1707H85.6092ZM85.6092 28.1951V29.1707H84.6336V28.1951H85.6092ZM84.6336 18.439V19.4146H83.658V18.439H84.6336ZM84.6336 19.4146V20.3902H83.658V19.4146H84.6336ZM84.6336 20.3902V21.3659H83.658V20.3902H84.6336ZM87.5604 16.4878V17.4634H86.5848V16.4878H87.5604ZM87.5604 18.439V19.4146H86.5848V18.439H87.5604ZM87.5604 19.4146V20.3902H86.5848V19.4146H87.5604ZM87.5604 20.3902V21.3659H86.5848V20.3902H87.5604ZM87.5604 21.3659V22.3415H86.5848V21.3659H87.5604ZM87.5604 22.3415V23.3171H86.5848V22.3415H87.5604ZM87.5604 23.3171V24.2927H86.5848V23.3171H87.5604ZM87.5604 24.2927V25.2683H86.5848V24.2927H87.5604ZM88.5361 25.2683V26.2439H87.5604V25.2683H88.5361ZM88.5361 26.2439V27.2195H87.5604V26.2439H88.5361ZM88.5361 27.2195V28.1951H87.5604V27.2195H88.5361ZM88.5361 24.2927V25.2683H87.5604V24.2927H88.5361ZM88.5361 23.3171V24.2927H87.5604V23.3171H88.5361ZM88.5361 22.3415V23.3171H87.5604V22.3415H88.5361ZM88.5361 21.3659V22.3415H87.5604V21.3659H88.5361ZM88.5361 20.3902V21.3659H87.5604V20.3902H88.5361ZM88.5361 19.4146V20.3902H87.5604V19.4146H88.5361ZM88.5361 18.439V19.4146H87.5604V18.439H88.5361ZM88.5361 17.4634V18.439H87.5604V17.4634H88.5361ZM88.5361 16.4878V17.4634H87.5604V16.4878H88.5361ZM88.5361 15.5122V16.4878H87.5604V15.5122H88.5361ZM87.5604 17.4634V18.439H86.5848V17.4634H87.5604ZM88.5361 14.5366V15.5122H87.5604V14.5366H88.5361ZM88.5361 13.561V14.5366H87.5604V13.561H88.5361ZM86.5848 16.4878V17.4634H85.6092V16.4878H86.5848ZM86.5848 17.4634V18.439H85.6092V17.4634H86.5848ZM86.5848 18.439V19.4146H85.6092V18.439H86.5848ZM85.6092 19.4146V20.3902H84.6336V19.4146H85.6092ZM85.6092 20.3902V21.3659H84.6336V20.3902H85.6092ZM85.6092 18.439V19.4146H84.6336V18.439H85.6092ZM85.6092 17.4634V18.439H84.6336V17.4634H85.6092ZM86.5848 19.4146V20.3902H85.6092V19.4146H86.5848ZM86.5848 20.3902V21.3659H85.6092V20.3902H86.5848ZM86.5848 21.3659V22.3415H85.6092V21.3659H86.5848ZM86.5848 22.3415V23.3171H85.6092V22.3415H86.5848ZM86.5848 23.3171V24.2927H85.6092V23.3171H86.5848ZM86.5848 24.2927V25.2683H85.6092V24.2927H86.5848ZM86.5848 25.2683V26.2439H85.6092V25.2683H86.5848ZM86.5848 26.2439V27.2195H85.6092V26.2439H86.5848ZM86.5848 27.2195V28.1951H85.6092V27.2195H86.5848ZM87.5604 26.2439V27.2195H86.5848V26.2439H87.5604ZM87.5604 25.2683V26.2439H86.5848V25.2683H87.5604ZM95.3653 35.0244V36H94.3897V35.0244H95.3653ZM95.3653 34.0488V35.0244H94.3897V34.0488H95.3653ZM95.3653 33.0732V34.0488H94.3897V33.0732H95.3653ZM95.3653 32.0976V33.0732H94.3897V32.0976H95.3653ZM95.3653 31.122V32.0976H94.3897V31.122H95.3653ZM95.3653 30.1463V31.122H94.3897V30.1463H95.3653ZM95.3653 29.1707V30.1463H94.3897V29.1707H95.3653ZM95.3653 28.1951V29.1707H94.3897V28.1951H95.3653ZM95.3653 27.2195V28.1951H94.3897V27.2195H95.3653ZM95.3653 26.2439V27.2195H94.3897V26.2439H95.3653ZM95.3653 25.2683V26.2439H94.3897V25.2683H95.3653ZM95.3653 24.2927V25.2683H94.3897V24.2927H95.3653ZM95.3653 23.3171V24.2927H94.3897V23.3171H95.3653ZM95.3653 22.3415V23.3171H94.3897V22.3415H95.3653ZM95.3653 21.3659V22.3415H94.3897V21.3659H95.3653ZM96.3409 21.3659V22.3415H95.3653V21.3659H96.3409ZM96.3409 22.3415V23.3171H95.3653V22.3415H96.3409ZM96.3409 23.3171V24.2927H95.3653V23.3171H96.3409ZM96.3409 24.2927V25.2683H95.3653V24.2927H96.3409ZM96.3409 25.2683V26.2439H95.3653V25.2683H96.3409ZM96.3409 26.2439V27.2195H95.3653V26.2439H96.3409ZM96.3409 27.2195V28.1951H95.3653V27.2195H96.3409ZM97.3165 28.1951V29.1707H96.3409V28.1951H97.3165ZM97.3165 29.1707V30.1463H96.3409V29.1707H97.3165ZM97.3165 30.1463V31.122H96.3409V30.1463H97.3165ZM97.3165 31.122V32.0976H96.3409V31.122H97.3165ZM97.3165 32.0976V33.0732H96.3409V32.0976H97.3165ZM97.3165 33.0732V34.0488H96.3409V33.0732H97.3165ZM97.3165 34.0488V35.0244H96.3409V34.0488H97.3165ZM97.3165 35.0244V36H96.3409V35.0244H97.3165ZM98.2922 35.0244V36H97.3165V35.0244H98.2922ZM99.2678 35.0244V36H98.2922V35.0244H99.2678ZM99.2678 34.0488V35.0244H98.2922V34.0488H99.2678ZM99.2678 33.0732V34.0488H98.2922V33.0732H99.2678ZM99.2678 32.0976V33.0732H98.2922V32.0976H99.2678ZM99.2678 31.122V32.0976H98.2922V31.122H99.2678ZM99.2678 30.1463V31.122H98.2922V30.1463H99.2678ZM99.2678 29.1707V30.1463H98.2922V29.1707H99.2678ZM99.2678 28.1951V29.1707H98.2922V28.1951H99.2678ZM98.2922 28.1951V29.1707H97.3165V28.1951H98.2922ZM98.2922 27.2195V28.1951H97.3165V27.2195H98.2922ZM98.2922 29.1707V30.1463H97.3165V29.1707H98.2922ZM98.2922 30.1463V31.122H97.3165V30.1463H98.2922ZM98.2922 31.122V32.0976H97.3165V31.122H98.2922ZM98.2922 32.0976V33.0732H97.3165V32.0976H98.2922ZM98.2922 33.0732V34.0488H97.3165V33.0732H98.2922ZM98.2922 34.0488V35.0244H97.3165V34.0488H98.2922ZM96.3409 35.0244V36H95.3653V35.0244H96.3409ZM96.3409 34.0488V35.0244H95.3653V34.0488H96.3409ZM96.3409 33.0732V34.0488H95.3653V33.0732H96.3409ZM96.3409 32.0976V33.0732H95.3653V32.0976H96.3409ZM96.3409 31.122V32.0976H95.3653V31.122H96.3409ZM96.3409 30.1463V31.122H95.3653V30.1463H96.3409ZM96.3409 29.1707V30.1463H95.3653V29.1707H96.3409ZM96.3409 28.1951V29.1707H95.3653V28.1951H96.3409ZM95.3653 13.561V14.5366H94.3897V13.561H95.3653ZM95.3653 14.5366V15.5122H94.3897V14.5366H95.3653ZM95.3653 15.5122V16.4878H94.3897V15.5122H95.3653ZM95.3653 16.4878V17.4634H94.3897V16.4878H95.3653ZM95.3653 17.4634V18.439H94.3897V17.4634H95.3653ZM95.3653 18.439V19.4146H94.3897V18.439H95.3653ZM95.3653 19.4146V20.3902H94.3897V19.4146H95.3653ZM95.3653 20.3902V21.3659H94.3897V20.3902H95.3653ZM98.2922 16.4878V17.4634H97.3165V16.4878H98.2922ZM98.2922 18.439V19.4146H97.3165V18.439H98.2922ZM98.2922 19.4146V20.3902H97.3165V19.4146H98.2922ZM98.2922 20.3902V21.3659H97.3165V20.3902H98.2922ZM98.2922 21.3659V22.3415H97.3165V21.3659H98.2922ZM98.2922 22.3415V23.3171H97.3165V22.3415H98.2922ZM98.2922 23.3171V24.2927H97.3165V23.3171H98.2922ZM98.2922 24.2927V25.2683H97.3165V24.2927H98.2922ZM99.2678 25.2683V26.2439H98.2922V25.2683H99.2678ZM99.2678 26.2439V27.2195H98.2922V26.2439H99.2678ZM99.2678 27.2195V28.1951H98.2922V27.2195H99.2678ZM99.2678 24.2927V25.2683H98.2922V24.2927H99.2678ZM99.2678 23.3171V24.2927H98.2922V23.3171H99.2678ZM99.2678 22.3415V23.3171H98.2922V22.3415H99.2678ZM99.2678 21.3659V22.3415H98.2922V21.3659H99.2678ZM99.2678 20.3902V21.3659H98.2922V20.3902H99.2678ZM99.2678 19.4146V20.3902H98.2922V19.4146H99.2678ZM99.2678 18.439V19.4146H98.2922V18.439H99.2678ZM99.2678 17.4634V18.439H98.2922V17.4634H99.2678ZM98.2922 17.4634V18.439H97.3165V17.4634H98.2922ZM97.3165 15.5122V16.4878H96.3409V15.5122H97.3165ZM97.3165 16.4878V17.4634H96.3409V16.4878H97.3165ZM97.3165 17.4634V18.439H96.3409V17.4634H97.3165ZM97.3165 18.439V19.4146H96.3409V18.439H97.3165ZM96.3409 19.4146V20.3902H95.3653V19.4146H96.3409ZM96.3409 20.3902V21.3659H95.3653V20.3902H96.3409ZM96.3409 18.439V19.4146H95.3653V18.439H96.3409ZM96.3409 17.4634V18.439H95.3653V17.4634H96.3409ZM96.3409 16.4878V17.4634H95.3653V16.4878H96.3409ZM96.3409 15.5122V16.4878H95.3653V15.5122H96.3409ZM96.3409 14.5366V15.5122H95.3653V14.5366H96.3409ZM97.3165 19.4146V20.3902H96.3409V19.4146H97.3165ZM97.3165 20.3902V21.3659H96.3409V20.3902H97.3165ZM97.3165 21.3659V22.3415H96.3409V21.3659H97.3165ZM97.3165 22.3415V23.3171H96.3409V22.3415H97.3165ZM97.3165 23.3171V24.2927H96.3409V23.3171H97.3165ZM97.3165 24.2927V25.2683H96.3409V24.2927H97.3165ZM97.3165 25.2683V26.2439H96.3409V25.2683H97.3165ZM97.3165 26.2439V27.2195H96.3409V26.2439H97.3165ZM97.3165 27.2195V28.1951H96.3409V27.2195H97.3165ZM98.2922 26.2439V27.2195H97.3165V26.2439H98.2922ZM98.2922 25.2683V26.2439H97.3165V25.2683H98.2922ZM90.4873 11.6098V12.5854H89.5117V11.6098H90.4873ZM91.4629 11.6098V12.5854H90.4873V11.6098H91.4629ZM92.4385 11.6098V12.5854H91.4629V11.6098H92.4385ZM93.4141 11.6098V12.5854H92.4385V11.6098H93.4141ZM94.3897 12.5854V13.561H93.4141V12.5854H94.3897ZM93.4141 12.5854V13.561H92.4385V12.5854H93.4141ZM92.4385 12.5854V13.561H91.4629V12.5854H92.4385ZM91.4629 12.5854V13.561H90.4873V12.5854H91.4629ZM90.4873 12.5854V13.561H89.5117V12.5854H90.4873ZM89.5117 12.5854V13.561H88.5361V12.5854H89.5117ZM89.5117 13.561V14.5366H88.5361V13.561H89.5117ZM89.5117 14.5366V15.5122H88.5361V14.5366H89.5117ZM90.4873 13.561V14.5366H89.5117V13.561H90.4873ZM91.4629 13.561V14.5366H90.4873V13.561H91.4629ZM92.4385 13.561V14.5366H91.4629V13.561H92.4385ZM93.4141 13.561V14.5366H92.4385V13.561H93.4141ZM94.3897 13.561V14.5366H93.4141V13.561H94.3897ZM94.3897 14.5366V15.5122H93.4141V14.5366H94.3897ZM93.4141 14.5366V15.5122H92.4385V14.5366H93.4141ZM92.4385 14.5366V15.5122H91.4629V14.5366H92.4385ZM91.4629 14.5366V15.5122H90.4873V14.5366H91.4629ZM90.4873 14.5366V15.5122H89.5117V14.5366H90.4873ZM89.5117 15.5122V16.4878H88.5361V15.5122H89.5117ZM90.4873 15.5122V16.4878H89.5117V15.5122H90.4873ZM94.3897 15.5122V16.4878H93.4141V15.5122H94.3897ZM93.4141 15.5122V16.4878H92.4385V15.5122H93.4141ZM94.3897 16.4878V17.4634H93.4141V16.4878H94.3897ZM89.5117 16.4878V17.4634H88.5361V16.4878H89.5117ZM87.5604 14.5366V15.5122H86.5848V14.5366H87.5604ZM87.5604 15.5122V16.4878H86.5848V15.5122H87.5604ZM86.5848 15.5122V16.4878H85.6092V15.5122H86.5848ZM85.6092 16.4878V17.4634H84.6336V16.4878H85.6092ZM84.6336 17.4634V18.439H83.658V17.4634H84.6336ZM89.5117 17.4634V18.439H88.5361V17.4634H89.5117ZM90.4873 16.4878V17.4634H89.5117V16.4878H90.4873ZM91.4629 15.5122V16.4878H90.4873V15.5122H91.4629ZM92.4385 15.5122V16.4878H91.4629V15.5122H92.4385ZM93.4141 16.4878V17.4634H92.4385V16.4878H93.4141ZM94.3897 17.4634V18.439H93.4141V17.4634H94.3897ZM89.5117 29.1707V30.1463H88.5361V29.1707H89.5117ZM90.4873 29.1707V30.1463H89.5117V29.1707H90.4873ZM91.4629 29.1707V30.1463H90.4873V29.1707H91.4629ZM92.4385 29.1707V30.1463H91.4629V29.1707H92.4385ZM93.4141 29.1707V30.1463H92.4385V29.1707H93.4141ZM94.3897 29.1707V30.1463H93.4141V29.1707H94.3897ZM94.3897 28.1951V29.1707H93.4141V28.1951H94.3897ZM93.4141 28.1951V29.1707H92.4385V28.1951H93.4141ZM92.4385 28.1951V29.1707H91.4629V28.1951H92.4385ZM91.4629 28.1951V29.1707H90.4873V28.1951H91.4629ZM90.4873 28.1951V29.1707H89.5117V28.1951H90.4873ZM89.5117 28.1951V29.1707H88.5361V28.1951H89.5117ZM89.5117 27.2195V28.1951H88.5361V27.2195H89.5117ZM90.4873 27.2195V28.1951H89.5117V27.2195H90.4873ZM91.4629 27.2195V28.1951H90.4873V27.2195H91.4629ZM92.4385 27.2195V28.1951H91.4629V27.2195H92.4385ZM93.4141 27.2195V28.1951H92.4385V27.2195H93.4141ZM94.3897 27.2195V28.1951H93.4141V27.2195H94.3897ZM94.3897 26.2439V27.2195H93.4141V26.2439H94.3897ZM93.4141 26.2439V27.2195H92.4385V26.2439H93.4141ZM92.4385 26.2439V27.2195H91.4629V26.2439H92.4385ZM91.4629 26.2439V27.2195H90.4873V26.2439H91.4629ZM90.4873 26.2439V27.2195H89.5117V26.2439H90.4873ZM89.5117 26.2439V27.2195H88.5361V26.2439H89.5117ZM89.5117 25.2683V26.2439H88.5361V25.2683H89.5117ZM90.4873 25.2683V26.2439H89.5117V25.2683H90.4873ZM91.4629 25.2683V26.2439H90.4873V25.2683H91.4629ZM92.4385 25.2683V26.2439H91.4629V25.2683H92.4385ZM93.4141 25.2683V26.2439H92.4385V25.2683H93.4141ZM94.3897 25.2683V26.2439H93.4141V25.2683H94.3897ZM91.4629 16.4878V17.4634H90.4873V16.4878H91.4629ZM92.4385 16.4878V17.4634H91.4629V16.4878H92.4385ZM90.4873 17.4634V18.439H89.5117V17.4634H90.4873ZM89.5117 18.439V19.4146H88.5361V18.439H89.5117ZM93.4141 17.4634V18.439H92.4385V17.4634H93.4141ZM94.3897 18.439V19.4146H93.4141V18.439H94.3897ZM109.043 35.0244V36H108.067V35.0244H109.043ZM109.043 34.0488V35.0244H108.067V34.0488H109.043ZM109.043 33.0732V34.0488H108.067V33.0732H109.043ZM109.043 32.0976V33.0732H108.067V32.0976H109.043ZM109.043 31.122V32.0976H108.067V31.122H109.043ZM109.043 30.1463V31.122H108.067V30.1463H109.043ZM109.043 29.1707V30.1463H108.067V29.1707H109.043ZM109.043 28.1951V29.1707H108.067V28.1951H109.043ZM109.043 27.2195V28.1951H108.067V27.2195H109.043ZM109.043 26.2439V27.2195H108.067V26.2439H109.043ZM109.043 25.2683V26.2439H108.067V25.2683H109.043ZM109.043 24.2927V25.2683H108.067V24.2927H109.043ZM109.043 23.3171V24.2927H108.067V23.3171H109.043ZM109.043 22.3415V23.3171H108.067V22.3415H109.043ZM109.043 21.3659V22.3415H108.067V21.3659H109.043ZM110.019 21.3659V22.3415H109.043V21.3659H110.019ZM110.019 22.3415V23.3171H109.043V22.3415H110.019ZM110.019 23.3171V24.2927H109.043V23.3171H110.019ZM110.019 24.2927V25.2683H109.043V24.2927H110.019ZM110.019 25.2683V26.2439H109.043V25.2683H110.019ZM110.019 26.2439V27.2195H109.043V26.2439H110.019ZM110.019 27.2195V28.1951H109.043V27.2195H110.019ZM110.994 28.1951V29.1707H110.019V28.1951H110.994ZM110.994 29.1707V30.1463H110.019V29.1707H110.994ZM110.994 30.1463V31.122H110.019V30.1463H110.994ZM110.994 31.122V32.0976H110.019V31.122H110.994ZM110.994 32.0976V33.0732H110.019V32.0976H110.994ZM110.994 33.0732V34.0488H110.019V33.0732H110.994ZM110.994 34.0488V35.0244H110.019V34.0488H110.994ZM110.994 35.0244V36H110.019V35.0244H110.994ZM111.97 35.0244V36H110.994V35.0244H111.97ZM112.945 35.0244V36H111.97V35.0244H112.945ZM112.945 34.0488V35.0244H111.97V34.0488H112.945ZM112.945 33.0732V34.0488H111.97V33.0732H112.945ZM112.945 32.0976V33.0732H111.97V32.0976H112.945ZM112.945 31.122V32.0976H111.97V31.122H112.945ZM112.945 30.1463V31.122H111.97V30.1463H112.945ZM112.945 29.1707V30.1463H111.97V29.1707H112.945ZM112.945 28.1951V29.1707H111.97V28.1951H112.945ZM111.97 28.1951V29.1707H110.994V28.1951H111.97ZM111.97 27.2195V28.1951H110.994V27.2195H111.97ZM111.97 29.1707V30.1463H110.994V29.1707H111.97ZM111.97 30.1463V31.122H110.994V30.1463H111.97ZM111.97 31.122V32.0976H110.994V31.122H111.97ZM111.97 32.0976V33.0732H110.994V32.0976H111.97ZM111.97 33.0732V34.0488H110.994V33.0732H111.97ZM111.97 34.0488V35.0244H110.994V34.0488H111.97ZM110.019 35.0244V36H109.043V35.0244H110.019ZM110.019 34.0488V35.0244H109.043V34.0488H110.019ZM110.019 33.0732V34.0488H109.043V33.0732H110.019ZM110.019 32.0976V33.0732H109.043V32.0976H110.019ZM110.019 31.122V32.0976H109.043V31.122H110.019ZM110.019 30.1463V31.122H109.043V30.1463H110.019ZM110.019 29.1707V30.1463H109.043V29.1707H110.019ZM110.019 28.1951V29.1707H109.043V28.1951H110.019ZM109.043 11.6098V12.5854H108.067V11.6098H109.043ZM109.043 12.5854V13.561H108.067V12.5854H109.043ZM109.043 13.561V14.5366H108.067V13.561H109.043ZM109.043 14.5366V15.5122H108.067V14.5366H109.043ZM109.043 15.5122V16.4878H108.067V15.5122H109.043ZM109.043 16.4878V17.4634H108.067V16.4878H109.043ZM109.043 17.4634V18.439H108.067V17.4634H109.043ZM109.043 18.439V19.4146H108.067V18.439H109.043ZM109.043 19.4146V20.3902H108.067V19.4146H109.043ZM109.043 20.3902V21.3659H108.067V20.3902H109.043ZM111.97 11.6098V12.5854H110.994V11.6098H111.97ZM111.97 12.5854V13.561H110.994V12.5854H111.97ZM111.97 13.561V14.5366H110.994V13.561H111.97ZM111.97 14.5366V15.5122H110.994V14.5366H111.97ZM111.97 15.5122V16.4878H110.994V15.5122H111.97ZM111.97 16.4878V17.4634H110.994V16.4878H111.97ZM111.97 18.439V19.4146H110.994V18.439H111.97ZM111.97 19.4146V20.3902H110.994V19.4146H111.97ZM111.97 20.3902V21.3659H110.994V20.3902H111.97ZM111.97 21.3659V22.3415H110.994V21.3659H111.97ZM111.97 22.3415V23.3171H110.994V22.3415H111.97ZM111.97 23.3171V24.2927H110.994V23.3171H111.97ZM111.97 24.2927V25.2683H110.994V24.2927H111.97ZM112.945 25.2683V26.2439H111.97V25.2683H112.945ZM112.945 26.2439V27.2195H111.97V26.2439H112.945ZM112.945 27.2195V28.1951H111.97V27.2195H112.945ZM112.945 24.2927V25.2683H111.97V24.2927H112.945ZM112.945 23.3171V24.2927H111.97V23.3171H112.945ZM112.945 22.3415V23.3171H111.97V22.3415H112.945ZM112.945 21.3659V22.3415H111.97V21.3659H112.945ZM112.945 20.3902V21.3659H111.97V20.3902H112.945ZM112.945 19.4146V20.3902H111.97V19.4146H112.945ZM112.945 18.439V19.4146H111.97V18.439H112.945ZM112.945 17.4634V18.439H111.97V17.4634H112.945ZM112.945 16.4878V17.4634H111.97V16.4878H112.945ZM112.945 15.5122V16.4878H111.97V15.5122H112.945ZM111.97 17.4634V18.439H110.994V17.4634H111.97ZM112.945 14.5366V15.5122H111.97V14.5366H112.945ZM112.945 13.561V14.5366H111.97V13.561H112.945ZM112.945 12.5854V13.561H111.97V12.5854H112.945ZM112.945 11.6098V12.5854H111.97V11.6098H112.945ZM110.994 11.6098V12.5854H110.019V11.6098H110.994ZM110.019 11.6098V12.5854H109.043V11.6098H110.019ZM110.019 12.5854V13.561H109.043V12.5854H110.019ZM110.994 12.5854V13.561H110.019V12.5854H110.994ZM110.994 13.561V14.5366H110.019V13.561H110.994ZM110.994 14.5366V15.5122H110.019V14.5366H110.994ZM110.994 15.5122V16.4878H110.019V15.5122H110.994ZM110.994 16.4878V17.4634H110.019V16.4878H110.994ZM110.994 17.4634V18.439H110.019V17.4634H110.994ZM110.994 18.439V19.4146H110.019V18.439H110.994ZM110.019 19.4146V20.3902H109.043V19.4146H110.019ZM110.019 20.3902V21.3659H109.043V20.3902H110.019ZM110.019 18.439V19.4146H109.043V18.439H110.019ZM110.019 17.4634V18.439H109.043V17.4634H110.019ZM110.019 16.4878V17.4634H109.043V16.4878H110.019ZM110.019 15.5122V16.4878H109.043V15.5122H110.019ZM110.019 14.5366V15.5122H109.043V14.5366H110.019ZM110.019 13.561V14.5366H109.043V13.561H110.019ZM110.994 19.4146V20.3902H110.019V19.4146H110.994ZM110.994 20.3902V21.3659H110.019V20.3902H110.994ZM110.994 21.3659V22.3415H110.019V21.3659H110.994ZM110.994 22.3415V23.3171H110.019V22.3415H110.994ZM110.994 23.3171V24.2927H110.019V23.3171H110.994ZM110.994 24.2927V25.2683H110.019V24.2927H110.994ZM110.994 25.2683V26.2439H110.019V25.2683H110.994ZM110.994 26.2439V27.2195H110.019V26.2439H110.994ZM110.994 27.2195V28.1951H110.019V27.2195H110.994ZM111.97 26.2439V27.2195H110.994V26.2439H111.97ZM111.97 25.2683V26.2439H110.994V25.2683H111.97ZM108.067 11.6098V12.5854H107.092V11.6098H108.067ZM107.092 11.6098V12.5854H106.116V11.6098H107.092ZM106.116 11.6098V12.5854H105.14V11.6098H106.116ZM105.14 11.6098V12.5854H104.165V11.6098H105.14ZM104.165 11.6098V12.5854H103.189V11.6098H104.165ZM104.165 12.5854V13.561H103.189V12.5854H104.165ZM104.165 13.561V14.5366H103.189V13.561H104.165ZM105.14 12.5854V13.561H104.165V12.5854H105.14ZM106.116 12.5854V13.561H105.14V12.5854H106.116ZM107.092 12.5854V13.561H106.116V12.5854H107.092ZM108.067 13.561V14.5366H107.092V13.561H108.067ZM108.067 12.5854V13.561H107.092V12.5854H108.067ZM107.092 13.561V14.5366H106.116V13.561H107.092ZM106.116 13.561V14.5366H105.14V13.561H106.116ZM105.14 13.561V14.5366H104.165V13.561H105.14ZM113.921 11.6098V12.5854H112.945V11.6098H113.921ZM114.897 11.6098V12.5854H113.921V11.6098H114.897ZM115.872 11.6098V12.5854H114.897V11.6098H115.872ZM116.848 11.6098V12.5854H115.872V11.6098H116.848ZM117.823 11.6098V12.5854H116.848V11.6098H117.823ZM117.823 12.5854V13.561H116.848V12.5854H117.823ZM116.848 12.5854V13.561H115.872V12.5854H116.848ZM115.872 12.5854V13.561H114.897V12.5854H115.872ZM114.897 12.5854V13.561H113.921V12.5854H114.897ZM113.921 12.5854V13.561H112.945V12.5854H113.921ZM113.921 13.561V14.5366H112.945V13.561H113.921ZM114.897 13.561V14.5366H113.921V13.561H114.897ZM115.872 13.561V14.5366H114.897V13.561H115.872ZM116.848 13.561V14.5366H115.872V13.561H116.848ZM117.823 13.561V14.5366H116.848V13.561H117.823ZM104.165 14.5366V15.5122H103.189V14.5366H104.165ZM104.165 15.5122V16.4878H103.189V15.5122H104.165ZM105.14 15.5122V16.4878H104.165V15.5122H105.14ZM106.116 15.5122V16.4878H105.14V15.5122H106.116ZM107.092 15.5122V16.4878H106.116V15.5122H107.092ZM108.067 15.5122V16.4878H107.092V15.5122H108.067ZM108.067 14.5366V15.5122H107.092V14.5366H108.067ZM107.092 14.5366V15.5122H106.116V14.5366H107.092ZM106.116 14.5366V15.5122H105.14V14.5366H106.116ZM105.14 14.5366V15.5122H104.165V14.5366H105.14ZM117.823 14.5366V15.5122H116.848V14.5366H117.823ZM117.823 15.5122V16.4878H116.848V15.5122H117.823ZM116.848 15.5122V16.4878H115.872V15.5122H116.848ZM115.872 15.5122V16.4878H114.897V15.5122H115.872ZM114.897 15.5122V16.4878H113.921V15.5122H114.897ZM113.921 15.5122V16.4878H112.945V15.5122H113.921ZM113.921 14.5366V15.5122H112.945V14.5366H113.921ZM114.897 14.5366V15.5122H113.921V14.5366H114.897ZM115.872 14.5366V15.5122H114.897V14.5366H115.872ZM116.848 14.5366V15.5122H115.872V14.5366H116.848ZM122.72 35.0244V36H121.744V35.0244H122.72ZM122.72 34.0488V35.0244H121.744V34.0488H122.72ZM122.72 33.0732V34.0488H121.744V33.0732H122.72ZM122.72 32.0976V33.0732H121.744V32.0976H122.72ZM122.72 31.122V32.0976H121.744V31.122H122.72ZM122.72 30.1463V31.122H121.744V30.1463H122.72ZM122.72 29.1707V30.1463H121.744V29.1707H122.72ZM122.72 28.1951V29.1707H121.744V28.1951H122.72ZM122.72 27.2195V28.1951H121.744V27.2195H122.72ZM122.72 26.2439V27.2195H121.744V26.2439H122.72ZM122.72 25.2683V26.2439H121.744V25.2683H122.72ZM122.72 24.2927V25.2683H121.744V24.2927H122.72ZM122.72 23.3171V24.2927H121.744V23.3171H122.72ZM122.72 22.3415V23.3171H121.744V22.3415H122.72ZM122.72 21.3659V22.3415H121.744V21.3659H122.72ZM123.695 21.3659V22.3415H122.72V21.3659H123.695ZM123.695 22.3415V23.3171H122.72V22.3415H123.695ZM123.695 23.3171V24.2927H122.72V23.3171H123.695ZM123.695 24.2927V25.2683H122.72V24.2927H123.695ZM123.695 25.2683V26.2439H122.72V25.2683H123.695ZM123.695 26.2439V27.2195H122.72V26.2439H123.695ZM123.695 27.2195V28.1951H122.72V27.2195H123.695ZM124.671 28.1951V29.1707H123.695V28.1951H124.671ZM124.671 29.1707V30.1463H123.695V29.1707H124.671ZM124.671 30.1463V31.122H123.695V30.1463H124.671ZM124.671 31.122V32.0976H123.695V31.122H124.671ZM124.671 32.0976V33.0732H123.695V32.0976H124.671ZM124.671 33.0732V34.0488H123.695V33.0732H124.671ZM124.671 34.0488V35.0244H123.695V34.0488H124.671ZM124.671 35.0244V36H123.695V35.0244H124.671ZM125.646 35.0244V36H124.671V35.0244H125.646ZM126.622 35.0244V36H125.646V35.0244H126.622ZM126.622 31.122V32.0976H125.646V31.122H126.622ZM126.622 30.1463V31.122H125.646V30.1463H126.622ZM126.622 29.1707V30.1463H125.646V29.1707H126.622ZM126.622 28.1951V29.1707H125.646V28.1951H126.622ZM125.646 28.1951V29.1707H124.671V28.1951H125.646ZM125.646 27.2195V28.1951H124.671V27.2195H125.646ZM125.646 29.1707V30.1463H124.671V29.1707H125.646ZM125.646 30.1463V31.122H124.671V30.1463H125.646ZM125.646 31.122V32.0976H124.671V31.122H125.646ZM125.646 32.0976V33.0732H124.671V32.0976H125.646ZM125.646 33.0732V34.0488H124.671V33.0732H125.646ZM125.646 34.0488V35.0244H124.671V34.0488H125.646ZM123.695 35.0244V36H122.72V35.0244H123.695ZM123.695 34.0488V35.0244H122.72V34.0488H123.695ZM123.695 33.0732V34.0488H122.72V33.0732H123.695ZM123.695 32.0976V33.0732H122.72V32.0976H123.695ZM123.695 31.122V32.0976H122.72V31.122H123.695ZM123.695 30.1463V31.122H122.72V30.1463H123.695ZM123.695 29.1707V30.1463H122.72V29.1707H123.695ZM123.695 28.1951V29.1707H122.72V28.1951H123.695ZM122.72 11.6098V12.5854H121.744V11.6098H122.72ZM122.72 12.5854V13.561H121.744V12.5854H122.72ZM122.72 13.561V14.5366H121.744V13.561H122.72ZM122.72 14.5366V15.5122H121.744V14.5366H122.72ZM122.72 15.5122V16.4878H121.744V15.5122H122.72ZM122.72 16.4878V17.4634H121.744V16.4878H122.72ZM122.72 17.4634V18.439H121.744V17.4634H122.72ZM122.72 18.439V19.4146H121.744V18.439H122.72ZM122.72 19.4146V20.3902H121.744V19.4146H122.72ZM122.72 20.3902V21.3659H121.744V20.3902H122.72ZM125.646 11.6098V12.5854H124.671V11.6098H125.646ZM125.646 12.5854V13.561H124.671V12.5854H125.646ZM125.646 13.561V14.5366H124.671V13.561H125.646ZM125.646 14.5366V15.5122H124.671V14.5366H125.646ZM125.646 15.5122V16.4878H124.671V15.5122H125.646ZM125.646 16.4878V17.4634H124.671V16.4878H125.646ZM125.646 18.439V19.4146H124.671V18.439H125.646ZM125.646 19.4146V20.3902H124.671V19.4146H125.646ZM125.646 20.3902V21.3659H124.671V20.3902H125.646ZM125.646 21.3659V22.3415H124.671V21.3659H125.646ZM125.646 22.3415V23.3171H124.671V22.3415H125.646ZM125.646 23.3171V24.2927H124.671V23.3171H125.646ZM125.646 24.2927V25.2683H124.671V24.2927H125.646ZM126.622 25.2683V26.2439H125.646V25.2683H126.622ZM126.622 26.2439V27.2195H125.646V26.2439H126.622ZM126.622 27.2195V28.1951H125.646V27.2195H126.622ZM126.622 24.2927V25.2683H125.646V24.2927H126.622ZM126.622 23.3171V24.2927H125.646V23.3171H126.622ZM126.622 22.3415V23.3171H125.646V22.3415H126.622ZM126.622 21.3659V22.3415H125.646V21.3659H126.622ZM126.622 20.3902V21.3659H125.646V20.3902H126.622ZM126.622 19.4146V20.3902H125.646V19.4146H126.622ZM126.622 18.439V19.4146H125.646V18.439H126.622ZM126.622 17.4634V18.439H125.646V17.4634H126.622ZM126.622 16.4878V17.4634H125.646V16.4878H126.622ZM126.622 15.5122V16.4878H125.646V15.5122H126.622ZM125.646 17.4634V18.439H124.671V17.4634H125.646ZM126.622 14.5366V15.5122H125.646V14.5366H126.622ZM126.622 13.561V14.5366H125.646V13.561H126.622ZM126.622 12.5854V13.561H125.646V12.5854H126.622ZM126.622 11.6098V12.5854H125.646V11.6098H126.622ZM124.671 11.6098V12.5854H123.695V11.6098H124.671ZM123.695 11.6098V12.5854H122.72V11.6098H123.695ZM123.695 12.5854V13.561H122.72V12.5854H123.695ZM124.671 12.5854V13.561H123.695V12.5854H124.671ZM124.671 13.561V14.5366H123.695V13.561H124.671ZM124.671 14.5366V15.5122H123.695V14.5366H124.671ZM124.671 15.5122V16.4878H123.695V15.5122H124.671ZM124.671 16.4878V17.4634H123.695V16.4878H124.671ZM124.671 17.4634V18.439H123.695V17.4634H124.671ZM124.671 18.439V19.4146H123.695V18.439H124.671ZM123.695 19.4146V20.3902H122.72V19.4146H123.695ZM123.695 20.3902V21.3659H122.72V20.3902H123.695ZM123.695 18.439V19.4146H122.72V18.439H123.695ZM123.695 17.4634V18.439H122.72V17.4634H123.695ZM123.695 16.4878V17.4634H122.72V16.4878H123.695ZM123.695 15.5122V16.4878H122.72V15.5122H123.695ZM123.695 14.5366V15.5122H122.72V14.5366H123.695ZM123.695 13.561V14.5366H122.72V13.561H123.695ZM124.671 19.4146V20.3902H123.695V19.4146H124.671ZM124.671 20.3902V21.3659H123.695V20.3902H124.671ZM124.671 21.3659V22.3415H123.695V21.3659H124.671ZM124.671 22.3415V23.3171H123.695V22.3415H124.671ZM124.671 23.3171V24.2927H123.695V23.3171H124.671ZM124.671 24.2927V25.2683H123.695V24.2927H124.671ZM124.671 25.2683V26.2439H123.695V25.2683H124.671ZM124.671 26.2439V27.2195H123.695V26.2439H124.671ZM124.671 27.2195V28.1951H123.695V27.2195H124.671ZM125.646 26.2439V27.2195H124.671V26.2439H125.646ZM125.646 25.2683V26.2439H124.671V25.2683H125.646ZM127.598 25.2683V26.2439H126.622V25.2683H127.598ZM128.573 25.2683V26.2439H127.598V25.2683H128.573ZM128.573 26.2439V27.2195H127.598V26.2439H128.573ZM127.598 26.2439V27.2195H126.622V26.2439H127.598ZM127.598 23.3171V24.2927H126.622V23.3171H127.598ZM128.573 23.3171V24.2927H127.598V23.3171H128.573ZM127.598 27.2195V28.1951H126.622V27.2195H127.598ZM128.573 27.2195V28.1951H127.598V27.2195H128.573ZM128.573 24.2927V25.2683H127.598V24.2927H128.573ZM127.598 24.2927V25.2683H126.622V24.2927H127.598ZM127.598 11.6098V12.5854H126.622V11.6098H127.598ZM128.573 11.6098V12.5854H127.598V11.6098H128.573ZM128.573 12.5854V13.561H127.598V12.5854H128.573ZM127.598 12.5854V13.561H126.622V12.5854H127.598ZM127.598 13.561V14.5366H126.622V13.561H127.598ZM128.573 13.561V14.5366H127.598V13.561H128.573ZM128.573 14.5366V15.5122H127.598V14.5366H128.573ZM127.598 14.5366V15.5122H126.622V14.5366H127.598ZM127.598 15.5122V16.4878H126.622V15.5122H127.598ZM128.573 15.5122V16.4878H127.598V15.5122H128.573ZM129.549 23.3171V24.2927H128.573V23.3171H129.549ZM130.524 23.3171V24.2927H129.549V23.3171H130.524ZM131.5 23.3171V24.2927H130.524V23.3171H131.5ZM132.476 22.3415V23.3171H131.5V22.3415H132.476ZM133.451 21.3659V22.3415H132.476V21.3659H133.451ZM133.451 20.3902V21.3659H132.476V20.3902H133.451ZM133.451 17.4634V18.439H132.476V17.4634H133.451ZM132.476 16.4878V17.4634H131.5V16.4878H132.476ZM131.5 15.5122V16.4878H130.524V15.5122H131.5ZM130.524 15.5122V16.4878H129.549V15.5122H130.524ZM129.549 15.5122V16.4878H128.573V15.5122H129.549ZM129.549 11.6098V12.5854H128.573V11.6098H129.549ZM130.524 11.6098V12.5854H129.549V11.6098H130.524ZM131.5 11.6098V12.5854H130.524V11.6098H131.5ZM132.476 11.6098V12.5854H131.5V11.6098H132.476ZM132.476 12.5854V13.561H131.5V12.5854H132.476ZM132.476 13.561V14.5366H131.5V13.561H132.476ZM132.476 14.5366V15.5122H131.5V14.5366H132.476ZM131.5 14.5366V15.5122H130.524V14.5366H131.5ZM131.5 13.561V14.5366H130.524V13.561H131.5ZM130.524 13.561V14.5366H129.549V13.561H130.524ZM129.549 13.561V14.5366H128.573V13.561H129.549ZM129.549 12.5854V13.561H128.573V12.5854H129.549ZM130.524 12.5854V13.561H129.549V12.5854H130.524ZM131.5 12.5854V13.561H130.524V12.5854H131.5ZM129.549 14.5366V15.5122H128.573V14.5366H129.549ZM130.524 14.5366V15.5122H129.549V14.5366H130.524ZM132.476 15.5122V16.4878H131.5V15.5122H132.476ZM133.451 16.4878V17.4634H132.476V16.4878H133.451ZM133.451 15.5122V16.4878H132.476V15.5122H133.451ZM133.451 14.5366V15.5122H132.476V14.5366H133.451ZM133.451 13.561V14.5366H132.476V13.561H133.451ZM133.451 12.5854V13.561H132.476V12.5854H133.451ZM133.451 11.6098V12.5854H132.476V11.6098H133.451ZM133.451 22.3415V23.3171H132.476V22.3415H133.451ZM133.451 23.3171V24.2927H132.476V23.3171H133.451ZM133.451 24.2927V25.2683H132.476V24.2927H133.451ZM133.451 25.2683V26.2439H132.476V25.2683H133.451ZM132.476 25.2683V26.2439H131.5V25.2683H132.476ZM131.5 25.2683V26.2439H130.524V25.2683H131.5ZM130.524 25.2683V26.2439H129.549V25.2683H130.524ZM129.549 25.2683V26.2439H128.573V25.2683H129.549ZM129.549 24.2927V25.2683H128.573V24.2927H129.549ZM130.524 24.2927V25.2683H129.549V24.2927H130.524ZM131.5 24.2927V25.2683H130.524V24.2927H131.5ZM132.476 24.2927V25.2683H131.5V24.2927H132.476ZM132.476 23.3171V24.2927H131.5V23.3171H132.476ZM129.549 26.2439V27.2195H128.573V26.2439H129.549ZM130.524 26.2439V27.2195H129.549V26.2439H130.524ZM131.5 26.2439V27.2195H130.524V26.2439H131.5ZM132.476 26.2439V27.2195H131.5V26.2439H132.476ZM133.451 26.2439V27.2195H132.476V26.2439H133.451ZM133.451 27.2195V28.1951H132.476V27.2195H133.451ZM132.476 27.2195V28.1951H131.5V27.2195H132.476ZM131.5 27.2195V28.1951H130.524V27.2195H131.5ZM130.524 27.2195V28.1951H129.549V27.2195H130.524ZM129.549 27.2195V28.1951H128.573V27.2195H129.549ZM134.427 12.5854V13.561H133.451V12.5854H134.427ZM135.402 12.5854V13.561H134.427V12.5854H135.402ZM135.402 13.561V14.5366H134.427V13.561H135.402ZM136.378 13.561V14.5366H135.402V13.561H136.378ZM136.378 14.5366V15.5122H135.402V14.5366H136.378ZM136.378 15.5122V16.4878H135.402V15.5122H136.378ZM137.354 15.5122V16.4878H136.378V15.5122H137.354ZM137.354 16.4878V17.4634H136.378V16.4878H137.354ZM137.354 17.4634V18.439H136.378V17.4634H137.354ZM137.354 20.3902V21.3659H136.378V20.3902H137.354ZM137.354 21.3659V22.3415H136.378V21.3659H137.354ZM137.354 22.3415V23.3171H136.378V22.3415H137.354ZM137.354 23.3171V24.2927H136.378V23.3171H137.354ZM136.378 24.2927V25.2683H135.402V24.2927H136.378ZM135.402 25.2683V26.2439H134.427V25.2683H135.402ZM134.427 26.2439V27.2195H133.451V26.2439H134.427ZM135.402 26.2439V27.2195H134.427V26.2439H135.402ZM134.427 27.2195V28.1951H133.451V27.2195H134.427ZM134.427 13.561V14.5366H133.451V13.561H134.427ZM134.427 14.5366V15.5122H133.451V14.5366H134.427ZM134.427 15.5122V16.4878H133.451V15.5122H134.427ZM134.427 16.4878V17.4634H133.451V16.4878H134.427ZM134.427 17.4634V18.439H133.451V17.4634H134.427ZM134.427 20.3902V21.3659H133.451V20.3902H134.427ZM134.427 21.3659V22.3415H133.451V21.3659H134.427ZM134.427 22.3415V23.3171H133.451V22.3415H134.427ZM134.427 23.3171V24.2927H133.451V23.3171H134.427ZM134.427 24.2927V25.2683H133.451V24.2927H134.427ZM134.427 25.2683V26.2439H133.451V25.2683H134.427ZM135.402 24.2927V25.2683H134.427V24.2927H135.402ZM135.402 23.3171V24.2927H134.427V23.3171H135.402ZM135.402 22.3415V23.3171H134.427V22.3415H135.402ZM135.402 21.3659V22.3415H134.427V21.3659H135.402ZM135.402 20.3902V21.3659H134.427V20.3902H135.402ZM135.402 17.4634V18.439H134.427V17.4634H135.402ZM135.402 16.4878V17.4634H134.427V16.4878H135.402ZM135.402 15.5122V16.4878H134.427V15.5122H135.402ZM135.402 14.5366V15.5122H134.427V14.5366H135.402ZM136.378 16.4878V17.4634H135.402V16.4878H136.378ZM136.378 17.4634V18.439H135.402V17.4634H136.378ZM136.378 20.3902V21.3659H135.402V20.3902H136.378ZM136.378 21.3659V22.3415H135.402V21.3659H136.378ZM136.378 22.3415V23.3171H135.402V22.3415H136.378ZM136.378 23.3171V24.2927H135.402V23.3171H136.378ZM126.622 33.0732V34.0488H125.646V33.0732H126.622ZM126.622 34.0488V35.0244H125.646V34.0488H126.622ZM126.622 32.0976V33.0732H125.646V32.0976H126.622ZM133.451 18.439V19.4146H132.476V18.439H133.451ZM134.427 18.439V19.4146H133.451V18.439H134.427ZM135.402 18.439V19.4146H134.427V18.439H135.402ZM136.378 18.439V19.4146H135.402V18.439H136.378ZM137.354 18.439V19.4146H136.378V18.439H137.354ZM137.354 19.4146V20.3902H136.378V19.4146H137.354ZM136.378 19.4146V20.3902H135.402V19.4146H136.378ZM135.402 19.4146V20.3902H134.427V19.4146H135.402ZM134.427 19.4146V20.3902H133.451V19.4146H134.427ZM133.451 19.4146V20.3902H132.476V19.4146H133.451ZM136.378 26.2439V27.2195H135.402V26.2439H136.378ZM137.354 27.2195V28.1951H136.378V27.2195H137.354ZM137.354 28.1951V29.1707H136.378V28.1951H137.354ZM137.354 29.1707V30.1463H136.378V29.1707H137.354ZM137.354 30.1463V31.122H136.378V30.1463H137.354ZM137.354 31.122V32.0976H136.378V31.122H137.354ZM137.354 32.0976V33.0732H136.378V32.0976H137.354ZM137.354 35.0244V36H136.378V35.0244H137.354ZM137.354 34.0488V35.0244H136.378V34.0488H137.354ZM137.354 33.0732V34.0488H136.378V33.0732H137.354ZM136.378 35.0244V36H135.402V35.0244H136.378ZM135.402 35.0244V36H134.427V35.0244H135.402ZM134.427 35.0244V36H133.451V35.0244H134.427ZM134.427 34.0488V35.0244H133.451V34.0488H134.427ZM134.427 33.0732V34.0488H133.451V33.0732H134.427ZM134.427 32.0976V33.0732H133.451V32.0976H134.427ZM134.427 31.122V32.0976H133.451V31.122H134.427ZM135.402 31.122V32.0976H134.427V31.122H135.402ZM135.402 30.1463V31.122H134.427V30.1463H135.402ZM136.378 30.1463V31.122H135.402V30.1463H136.378ZM136.378 31.122V32.0976H135.402V31.122H136.378ZM136.378 32.0976V33.0732H135.402V32.0976H136.378ZM136.378 33.0732V34.0488H135.402V33.0732H136.378ZM136.378 34.0488V35.0244H135.402V34.0488H136.378ZM135.402 34.0488V35.0244H134.427V34.0488H135.402ZM135.402 33.0732V34.0488H134.427V33.0732H135.402ZM135.402 32.0976V33.0732H134.427V32.0976H135.402ZM133.451 35.0244V36H132.476V35.0244H133.451ZM133.451 34.0488V35.0244H132.476V34.0488H133.451ZM133.451 33.0732V34.0488H132.476V33.0732H133.451ZM133.451 32.0976V33.0732H132.476V32.0976H133.451ZM133.451 31.122V32.0976H132.476V31.122H133.451ZM133.451 30.1463V31.122H132.476V30.1463H133.451ZM133.451 29.1707V30.1463H132.476V29.1707H133.451ZM133.451 28.1951V29.1707H132.476V28.1951H133.451ZM134.427 28.1951V29.1707H133.451V28.1951H134.427ZM135.402 28.1951V29.1707H134.427V28.1951H135.402ZM136.378 28.1951V29.1707H135.402V28.1951H136.378ZM136.378 27.2195V28.1951H135.402V27.2195H136.378ZM135.402 27.2195V28.1951H134.427V27.2195H135.402ZM135.402 29.1707V30.1463H134.427V29.1707H135.402ZM134.427 29.1707V30.1463H133.451V29.1707H134.427ZM134.427 30.1463V31.122H133.451V30.1463H134.427ZM136.378 29.1707V30.1463H135.402V29.1707H136.378ZM142.251 35.0244V36H141.275V35.0244H142.251ZM142.251 34.0488V35.0244H141.275V34.0488H142.251ZM142.251 33.0732V34.0488H141.275V33.0732H142.251ZM142.251 32.0976V33.0732H141.275V32.0976H142.251ZM142.251 31.122V32.0976H141.275V31.122H142.251ZM142.251 30.1463V31.122H141.275V30.1463H142.251ZM142.251 29.1707V30.1463H141.275V29.1707H142.251ZM142.251 28.1951V29.1707H141.275V28.1951H142.251ZM142.251 27.2195V28.1951H141.275V27.2195H142.251ZM142.251 26.2439V27.2195H141.275V26.2439H142.251ZM142.251 25.2683V26.2439H141.275V25.2683H142.251ZM142.251 24.2927V25.2683H141.275V24.2927H142.251ZM142.251 23.3171V24.2927H141.275V23.3171H142.251ZM142.251 22.3415V23.3171H141.275V22.3415H142.251ZM142.251 21.3659V22.3415H141.275V21.3659H142.251ZM143.226 21.3659V22.3415H142.251V21.3659H143.226ZM143.226 22.3415V23.3171H142.251V22.3415H143.226ZM143.226 23.3171V24.2927H142.251V23.3171H143.226ZM143.226 24.2927V25.2683H142.251V24.2927H143.226ZM143.226 25.2683V26.2439H142.251V25.2683H143.226ZM143.226 26.2439V27.2195H142.251V26.2439H143.226ZM143.226 27.2195V28.1951H142.251V27.2195H143.226ZM144.202 28.1951V29.1707H143.226V28.1951H144.202ZM144.202 29.1707V30.1463H143.226V29.1707H144.202ZM144.202 30.1463V31.122H143.226V30.1463H144.202ZM144.202 31.122V32.0976H143.226V31.122H144.202ZM144.202 32.0976V33.0732H143.226V32.0976H144.202ZM144.202 33.0732V34.0488H143.226V33.0732H144.202ZM144.202 34.0488V35.0244H143.226V34.0488H144.202ZM144.202 35.0244V36H143.226V35.0244H144.202ZM145.178 35.0244V36H144.202V35.0244H145.178ZM146.153 35.0244V36H145.178V35.0244H146.153ZM146.153 34.0488V35.0244H145.178V34.0488H146.153ZM146.153 33.0732V34.0488H145.178V33.0732H146.153ZM146.153 32.0976V33.0732H145.178V32.0976H146.153ZM146.153 31.122V32.0976H145.178V31.122H146.153ZM146.153 30.1463V31.122H145.178V30.1463H146.153ZM146.153 29.1707V30.1463H145.178V29.1707H146.153ZM146.153 28.1951V29.1707H145.178V28.1951H146.153ZM145.178 28.1951V29.1707H144.202V28.1951H145.178ZM145.178 27.2195V28.1951H144.202V27.2195H145.178ZM145.178 29.1707V30.1463H144.202V29.1707H145.178ZM145.178 30.1463V31.122H144.202V30.1463H145.178ZM145.178 31.122V32.0976H144.202V31.122H145.178ZM145.178 32.0976V33.0732H144.202V32.0976H145.178ZM145.178 33.0732V34.0488H144.202V33.0732H145.178ZM145.178 34.0488V35.0244H144.202V34.0488H145.178ZM143.226 35.0244V36H142.251V35.0244H143.226ZM143.226 34.0488V35.0244H142.251V34.0488H143.226ZM143.226 33.0732V34.0488H142.251V33.0732H143.226ZM143.226 32.0976V33.0732H142.251V32.0976H143.226ZM143.226 31.122V32.0976H142.251V31.122H143.226ZM143.226 30.1463V31.122H142.251V30.1463H143.226ZM143.226 29.1707V30.1463H142.251V29.1707H143.226ZM143.226 28.1951V29.1707H142.251V28.1951H143.226ZM142.251 11.6098V12.5854H141.275V11.6098H142.251ZM142.251 12.5854V13.561H141.275V12.5854H142.251ZM142.251 13.561V14.5366H141.275V13.561H142.251ZM142.251 14.5366V15.5122H141.275V14.5366H142.251ZM142.251 15.5122V16.4878H141.275V15.5122H142.251ZM142.251 16.4878V17.4634H141.275V16.4878H142.251ZM142.251 17.4634V18.439H141.275V17.4634H142.251ZM142.251 18.439V19.4146H141.275V18.439H142.251ZM142.251 19.4146V20.3902H141.275V19.4146H142.251ZM142.251 20.3902V21.3659H141.275V20.3902H142.251ZM145.178 11.6098V12.5854H144.202V11.6098H145.178ZM145.178 12.5854V13.561H144.202V12.5854H145.178ZM145.178 13.561V14.5366H144.202V13.561H145.178ZM145.178 14.5366V15.5122H144.202V14.5366H145.178ZM145.178 15.5122V16.4878H144.202V15.5122H145.178ZM145.178 16.4878V17.4634H144.202V16.4878H145.178ZM145.178 18.439V19.4146H144.202V18.439H145.178ZM145.178 19.4146V20.3902H144.202V19.4146H145.178ZM145.178 20.3902V21.3659H144.202V20.3902H145.178ZM145.178 21.3659V22.3415H144.202V21.3659H145.178ZM145.178 22.3415V23.3171H144.202V22.3415H145.178ZM145.178 23.3171V24.2927H144.202V23.3171H145.178ZM145.178 24.2927V25.2683H144.202V24.2927H145.178ZM146.153 25.2683V26.2439H145.178V25.2683H146.153ZM146.153 26.2439V27.2195H145.178V26.2439H146.153ZM146.153 27.2195V28.1951H145.178V27.2195H146.153ZM146.153 24.2927V25.2683H145.178V24.2927H146.153ZM146.153 23.3171V24.2927H145.178V23.3171H146.153ZM146.153 22.3415V23.3171H145.178V22.3415H146.153ZM146.153 21.3659V22.3415H145.178V21.3659H146.153ZM146.153 20.3902V21.3659H145.178V20.3902H146.153ZM146.153 19.4146V20.3902H145.178V19.4146H146.153ZM146.153 18.439V19.4146H145.178V18.439H146.153ZM146.153 17.4634V18.439H145.178V17.4634H146.153ZM146.153 16.4878V17.4634H145.178V16.4878H146.153ZM146.153 15.5122V16.4878H145.178V15.5122H146.153ZM145.178 17.4634V18.439H144.202V17.4634H145.178ZM146.153 14.5366V15.5122H145.178V14.5366H146.153ZM146.153 13.561V14.5366H145.178V13.561H146.153ZM146.153 12.5854V13.561H145.178V12.5854H146.153ZM146.153 11.6098V12.5854H145.178V11.6098H146.153ZM144.202 11.6098V12.5854H143.226V11.6098H144.202ZM143.226 11.6098V12.5854H142.251V11.6098H143.226ZM143.226 12.5854V13.561H142.251V12.5854H143.226ZM144.202 12.5854V13.561H143.226V12.5854H144.202ZM144.202 13.561V14.5366H143.226V13.561H144.202ZM144.202 14.5366V15.5122H143.226V14.5366H144.202ZM144.202 15.5122V16.4878H143.226V15.5122H144.202ZM144.202 16.4878V17.4634H143.226V16.4878H144.202ZM144.202 17.4634V18.439H143.226V17.4634H144.202ZM144.202 18.439V19.4146H143.226V18.439H144.202ZM143.226 19.4146V20.3902H142.251V19.4146H143.226ZM143.226 20.3902V21.3659H142.251V20.3902H143.226ZM143.226 18.439V19.4146H142.251V18.439H143.226ZM143.226 17.4634V18.439H142.251V17.4634H143.226ZM143.226 16.4878V17.4634H142.251V16.4878H143.226ZM143.226 15.5122V16.4878H142.251V15.5122H143.226ZM143.226 14.5366V15.5122H142.251V14.5366H143.226ZM143.226 13.561V14.5366H142.251V13.561H143.226ZM144.202 19.4146V20.3902H143.226V19.4146H144.202ZM144.202 20.3902V21.3659H143.226V20.3902H144.202ZM144.202 21.3659V22.3415H143.226V21.3659H144.202ZM144.202 22.3415V23.3171H143.226V22.3415H144.202ZM144.202 23.3171V24.2927H143.226V23.3171H144.202ZM144.202 24.2927V25.2683H143.226V24.2927H144.202ZM144.202 25.2683V26.2439H143.226V25.2683H144.202ZM144.202 26.2439V27.2195H143.226V26.2439H144.202ZM144.202 27.2195V28.1951H143.226V27.2195H144.202ZM145.178 26.2439V27.2195H144.202V26.2439H145.178ZM145.178 25.2683V26.2439H144.202V25.2683H145.178ZM151.04 12.5854H150.064V11.6098H151.04V12.5854ZM151.04 13.561H150.064V12.5854H151.04V13.561ZM151.04 14.5366H150.064V13.561H151.04V14.5366ZM151.04 15.5122H150.064V14.5366H151.04V15.5122ZM152.015 15.5122H151.04V14.5366H152.015V15.5122ZM152.015 14.5366H151.04V13.561H152.015V14.5366ZM152.015 13.561H151.04V12.5854H152.015V13.561ZM152.015 12.5854H151.04V11.6098H152.015V12.5854ZM151.04 18.439H150.064V17.4634H151.04V18.439ZM151.04 17.4634H150.064V16.4878H151.04V17.4634ZM151.04 16.4878H150.064V15.5122H151.04V16.4878ZM153.967 20.3902H152.991V19.4146H153.967V20.3902ZM153.967 18.439H152.991V17.4634H153.967V18.439ZM153.967 17.4634H152.991V16.4878H153.967V17.4634ZM153.967 16.4878H152.991V15.5122H153.967V16.4878ZM153.967 15.5122H152.991V14.5366H153.967V15.5122ZM153.967 14.5366H152.991V13.561H153.967V14.5366ZM153.967 13.561H152.991V12.5854H153.967V13.561ZM153.967 12.5854H152.991V11.6098H153.967V12.5854ZM154.942 12.5854H153.967V11.6098H154.942V12.5854ZM154.942 13.561H153.967V12.5854H154.942V13.561ZM154.942 14.5366H153.967V13.561H154.942V14.5366ZM154.942 15.5122H153.967V14.5366H154.942V15.5122ZM154.942 16.4878H153.967V15.5122H154.942V16.4878ZM154.942 17.4634H153.967V16.4878H154.942V17.4634ZM154.942 18.439H153.967V17.4634H154.942V18.439ZM154.942 19.4146H153.967V18.439H154.942V19.4146ZM154.942 20.3902H153.967V19.4146H154.942V20.3902ZM154.942 21.3659H153.967V20.3902H154.942V21.3659ZM153.967 19.4146H152.991V18.439H153.967V19.4146ZM154.942 22.3415H153.967V21.3659H154.942V22.3415ZM154.942 23.3171H153.967V22.3415H154.942V23.3171ZM152.991 20.3902H152.015V19.4146H152.991V20.3902ZM152.991 19.4146H152.015V18.439H152.991V19.4146ZM152.991 18.439H152.015V17.4634H152.991V18.439ZM152.015 17.4634H151.04V16.4878H152.015V17.4634ZM152.015 16.4878H151.04V15.5122H152.015V16.4878ZM152.015 18.439H151.04V17.4634H152.015V18.439ZM152.015 19.4146H151.04V18.439H152.015V19.4146ZM152.991 17.4634H152.015V16.4878H152.991V17.4634ZM152.991 16.4878H152.015V15.5122H152.991V16.4878ZM152.991 15.5122H152.015V14.5366H152.991V15.5122ZM152.991 14.5366H152.015V13.561H152.991V14.5366ZM152.991 13.561H152.015V12.5854H152.991V13.561ZM152.991 12.5854H152.015V11.6098H152.991V12.5854ZM161.772 12.5854H160.796V11.6098H161.772V12.5854ZM161.772 13.561H160.796V12.5854H161.772V13.561ZM161.772 14.5366H160.796V13.561H161.772V14.5366ZM161.772 15.5122H160.796V14.5366H161.772V15.5122ZM162.747 15.5122H161.772V14.5366H162.747V15.5122ZM162.747 14.5366H161.772V13.561H162.747V14.5366ZM162.747 13.561H161.772V12.5854H162.747V13.561ZM162.747 12.5854H161.772V11.6098H162.747V12.5854ZM161.772 23.3171H160.796V22.3415H161.772V23.3171ZM161.772 22.3415H160.796V21.3659H161.772V22.3415ZM161.772 21.3659H160.796V20.3902H161.772V21.3659ZM161.772 20.3902H160.796V19.4146H161.772V20.3902ZM161.772 19.4146H160.796V18.439H161.772V19.4146ZM161.772 18.439H160.796V17.4634H161.772V18.439ZM161.772 17.4634H160.796V16.4878H161.772V17.4634ZM161.772 16.4878H160.796V15.5122H161.772V16.4878ZM164.698 20.3902H163.723V19.4146H164.698V20.3902ZM164.698 18.439H163.723V17.4634H164.698V18.439ZM164.698 17.4634H163.723V16.4878H164.698V17.4634ZM164.698 16.4878H163.723V15.5122H164.698V16.4878ZM164.698 15.5122H163.723V14.5366H164.698V15.5122ZM164.698 14.5366H163.723V13.561H164.698V14.5366ZM164.698 13.561H163.723V12.5854H164.698V13.561ZM164.698 12.5854H163.723V11.6098H164.698V12.5854ZM165.674 12.5854H164.698V11.6098H165.674V12.5854ZM165.674 13.561H164.698V12.5854H165.674V13.561ZM165.674 14.5366H164.698V13.561H165.674V14.5366ZM165.674 15.5122H164.698V14.5366H165.674V15.5122ZM165.674 16.4878H164.698V15.5122H165.674V16.4878ZM165.674 17.4634H164.698V16.4878H165.674V17.4634ZM165.674 18.439H164.698V17.4634H165.674V18.439ZM165.674 19.4146H164.698V18.439H165.674V19.4146ZM164.698 19.4146H163.723V18.439H164.698V19.4146ZM163.723 21.3659H162.747V20.3902H163.723V21.3659ZM163.723 20.3902H162.747V19.4146H163.723V20.3902ZM163.723 19.4146H162.747V18.439H163.723V19.4146ZM163.723 18.439H162.747V17.4634H163.723V18.439ZM162.747 17.4634H161.772V16.4878H162.747V17.4634ZM162.747 16.4878H161.772V15.5122H162.747V16.4878ZM162.747 18.439H161.772V17.4634H162.747V18.439ZM162.747 19.4146H161.772V18.439H162.747V19.4146ZM162.747 20.3902H161.772V19.4146H162.747V20.3902ZM162.747 21.3659H161.772V20.3902H162.747V21.3659ZM162.747 22.3415H161.772V21.3659H162.747V22.3415ZM163.723 17.4634H162.747V16.4878H163.723V17.4634ZM163.723 16.4878H162.747V15.5122H163.723V16.4878ZM163.723 15.5122H162.747V14.5366H163.723V15.5122ZM163.723 14.5366H162.747V13.561H163.723V14.5366ZM163.723 13.561H162.747V12.5854H163.723V13.561ZM163.723 12.5854H162.747V11.6098H163.723V12.5854ZM160.796 24.2927H159.82V23.3171H160.796V24.2927ZM159.82 24.2927H158.845V23.3171H159.82V24.2927ZM158.845 24.2927H157.869V23.3171H158.845V24.2927ZM157.869 24.2927H156.894V23.3171H157.869V24.2927ZM156.894 24.2927H155.918V23.3171H156.894V24.2927ZM155.918 24.2927H154.942V23.3171H155.918V24.2927ZM155.918 23.3171H154.942V22.3415H155.918V23.3171ZM155.918 22.3415H154.942V21.3659H155.918V22.3415ZM156.894 23.3171H155.918V22.3415H156.894V23.3171ZM157.869 23.3171H156.894V22.3415H157.869V23.3171ZM158.845 23.3171H157.869V22.3415H158.845V23.3171ZM159.82 23.3171H158.845V22.3415H159.82V23.3171ZM160.796 23.3171H159.82V22.3415H160.796V23.3171ZM160.796 22.3415H159.82V21.3659H160.796V22.3415ZM159.82 22.3415H158.845V21.3659H159.82V22.3415ZM158.845 22.3415H157.869V21.3659H158.845V22.3415ZM157.869 22.3415H156.894V21.3659H157.869V22.3415ZM156.894 22.3415H155.918V21.3659H156.894V22.3415ZM155.918 21.3659H154.942V20.3902H155.918V21.3659ZM156.894 21.3659H155.918V20.3902H156.894V21.3659ZM160.796 21.3659H159.82V20.3902H160.796V21.3659ZM159.82 21.3659H158.845V20.3902H159.82V21.3659ZM160.796 20.3902H159.82V19.4146H160.796V20.3902ZM155.918 20.3902H154.942V19.4146H155.918V20.3902ZM153.967 22.3415H152.991V21.3659H153.967V22.3415ZM153.967 21.3659H152.991V20.3902H153.967V21.3659ZM152.991 21.3659H152.015V20.3902H152.991V21.3659ZM152.015 20.3902H151.04V19.4146H152.015V20.3902ZM151.04 19.4146H150.064V18.439H151.04V19.4146ZM155.918 19.4146H154.942V18.439H155.918V19.4146ZM156.894 20.3902H155.918V19.4146H156.894V20.3902ZM157.869 21.3659H156.894V20.3902H157.869V21.3659ZM158.845 21.3659H157.869V20.3902H158.845V21.3659ZM159.82 20.3902H158.845V19.4146H159.82V20.3902ZM160.796 19.4146H159.82V18.439H160.796V19.4146ZM157.869 20.3902H156.894V19.4146H157.869V20.3902ZM158.845 20.3902H157.869V19.4146H158.845V20.3902ZM156.894 19.4146H155.918V18.439H156.894V19.4146ZM155.918 18.439H154.942V17.4634H155.918V18.439ZM159.82 19.4146H158.845V18.439H159.82V19.4146ZM160.796 18.439H159.82V17.4634H160.796V18.439ZM151.04 35.0244V36H150.064V35.0244H151.04ZM151.04 34.0488V35.0244H150.064V34.0488H151.04ZM151.04 33.0732V34.0488H150.064V33.0732H151.04ZM151.04 32.0976V33.0732H150.064V32.0976H151.04ZM152.015 32.0976V33.0732H151.04V32.0976H152.015ZM152.015 33.0732V34.0488H151.04V33.0732H152.015ZM152.015 34.0488V35.0244H151.04V34.0488H152.015ZM152.015 35.0244V36H151.04V35.0244H152.015ZM151.04 29.1707V30.1463H150.064V29.1707H151.04ZM151.04 30.1463V31.122H150.064V30.1463H151.04ZM151.04 31.122V32.0976H150.064V31.122H151.04ZM153.967 27.2195V28.1951H152.991V27.2195H153.967ZM153.967 29.1707V30.1463H152.991V29.1707H153.967ZM153.967 30.1463V31.122H152.991V30.1463H153.967ZM153.967 31.122V32.0976H152.991V31.122H153.967ZM153.967 32.0976V33.0732H152.991V32.0976H153.967ZM153.967 33.0732V34.0488H152.991V33.0732H153.967ZM153.967 34.0488V35.0244H152.991V34.0488H153.967ZM153.967 35.0244V36H152.991V35.0244H153.967ZM154.942 35.0244V36H153.967V35.0244H154.942ZM154.942 34.0488V35.0244H153.967V34.0488H154.942ZM154.942 33.0732V34.0488H153.967V33.0732H154.942ZM154.942 32.0976V33.0732H153.967V32.0976H154.942ZM154.942 31.122V32.0976H153.967V31.122H154.942ZM154.942 30.1463V31.122H153.967V30.1463H154.942ZM154.942 29.1707V30.1463H153.967V29.1707H154.942ZM154.942 28.1951V29.1707H153.967V28.1951H154.942ZM154.942 27.2195V28.1951H153.967V27.2195H154.942ZM154.942 26.2439V27.2195H153.967V26.2439H154.942ZM153.967 28.1951V29.1707H152.991V28.1951H153.967ZM154.942 25.2683V26.2439H153.967V25.2683H154.942ZM154.942 24.2927V25.2683H153.967V24.2927H154.942ZM152.991 27.2195V28.1951H152.015V27.2195H152.991ZM152.991 28.1951V29.1707H152.015V28.1951H152.991ZM152.991 29.1707V30.1463H152.015V29.1707H152.991ZM152.015 30.1463V31.122H151.04V30.1463H152.015ZM152.015 31.122V32.0976H151.04V31.122H152.015ZM152.015 29.1707V30.1463H151.04V29.1707H152.015ZM152.015 28.1951V29.1707H151.04V28.1951H152.015ZM152.991 30.1463V31.122H152.015V30.1463H152.991ZM152.991 31.122V32.0976H152.015V31.122H152.991ZM152.991 32.0976V33.0732H152.015V32.0976H152.991ZM152.991 33.0732V34.0488H152.015V33.0732H152.991ZM152.991 34.0488V35.0244H152.015V34.0488H152.991ZM152.991 35.0244V36H152.015V35.0244H152.991ZM161.772 35.0244V36H160.796V35.0244H161.772ZM161.772 34.0488V35.0244H160.796V34.0488H161.772ZM161.772 33.0732V34.0488H160.796V33.0732H161.772ZM161.772 32.0976V33.0732H160.796V32.0976H161.772ZM162.747 32.0976V33.0732H161.772V32.0976H162.747ZM162.747 33.0732V34.0488H161.772V33.0732H162.747ZM162.747 34.0488V35.0244H161.772V34.0488H162.747ZM162.747 35.0244V36H161.772V35.0244H162.747ZM161.772 24.2927V25.2683H160.796V24.2927H161.772ZM161.772 25.2683V26.2439H160.796V25.2683H161.772ZM161.772 26.2439V27.2195H160.796V26.2439H161.772ZM161.772 27.2195V28.1951H160.796V27.2195H161.772ZM161.772 28.1951V29.1707H160.796V28.1951H161.772ZM161.772 29.1707V30.1463H160.796V29.1707H161.772ZM161.772 30.1463V31.122H160.796V30.1463H161.772ZM161.772 31.122V32.0976H160.796V31.122H161.772ZM164.698 27.2195V28.1951H163.723V27.2195H164.698ZM164.698 29.1707V30.1463H163.723V29.1707H164.698ZM164.698 30.1463V31.122H163.723V30.1463H164.698ZM164.698 31.122V32.0976H163.723V31.122H164.698ZM164.698 32.0976V33.0732H163.723V32.0976H164.698ZM164.698 33.0732V34.0488H163.723V33.0732H164.698ZM164.698 34.0488V35.0244H163.723V34.0488H164.698ZM164.698 35.0244V36H163.723V35.0244H164.698ZM165.674 35.0244V36H164.698V35.0244H165.674ZM165.674 34.0488V35.0244H164.698V34.0488H165.674ZM165.674 33.0732V34.0488H164.698V33.0732H165.674ZM165.674 32.0976V33.0732H164.698V32.0976H165.674ZM165.674 31.122V32.0976H164.698V31.122H165.674ZM165.674 30.1463V31.122H164.698V30.1463H165.674ZM165.674 29.1707V30.1463H164.698V29.1707H165.674ZM165.674 28.1951V29.1707H164.698V28.1951H165.674ZM164.698 28.1951V29.1707H163.723V28.1951H164.698ZM163.723 26.2439V27.2195H162.747V26.2439H163.723ZM163.723 27.2195V28.1951H162.747V27.2195H163.723ZM163.723 28.1951V29.1707H162.747V28.1951H163.723ZM163.723 29.1707V30.1463H162.747V29.1707H163.723ZM162.747 30.1463V31.122H161.772V30.1463H162.747ZM162.747 31.122V32.0976H161.772V31.122H162.747ZM162.747 29.1707V30.1463H161.772V29.1707H162.747ZM162.747 28.1951V29.1707H161.772V28.1951H162.747ZM162.747 27.2195V28.1951H161.772V27.2195H162.747ZM162.747 26.2439V27.2195H161.772V26.2439H162.747ZM162.747 25.2683V26.2439H161.772V25.2683H162.747ZM163.723 30.1463V31.122H162.747V30.1463H163.723ZM163.723 31.122V32.0976H162.747V31.122H163.723ZM163.723 32.0976V33.0732H162.747V32.0976H163.723ZM163.723 33.0732V34.0488H162.747V33.0732H163.723ZM163.723 34.0488V35.0244H162.747V34.0488H163.723ZM163.723 35.0244V36H162.747V35.0244H163.723ZM155.918 24.2927V25.2683H154.942V24.2927H155.918ZM155.918 25.2683V26.2439H154.942V25.2683H155.918ZM156.894 24.2927V25.2683H155.918V24.2927H156.894ZM157.869 24.2927V25.2683H156.894V24.2927H157.869ZM158.845 24.2927V25.2683H157.869V24.2927H158.845ZM159.82 24.2927V25.2683H158.845V24.2927H159.82ZM160.796 24.2927V25.2683H159.82V24.2927H160.796ZM160.796 25.2683V26.2439H159.82V25.2683H160.796ZM159.82 25.2683V26.2439H158.845V25.2683H159.82ZM158.845 25.2683V26.2439H157.869V25.2683H158.845ZM157.869 25.2683V26.2439H156.894V25.2683H157.869ZM156.894 25.2683V26.2439H155.918V25.2683H156.894ZM155.918 26.2439V27.2195H154.942V26.2439H155.918ZM156.894 26.2439V27.2195H155.918V26.2439H156.894ZM160.796 26.2439V27.2195H159.82V26.2439H160.796ZM159.82 26.2439V27.2195H158.845V26.2439H159.82ZM160.796 27.2195V28.1951H159.82V27.2195H160.796ZM155.918 27.2195V28.1951H154.942V27.2195H155.918ZM153.967 25.2683V26.2439H152.991V25.2683H153.967ZM153.967 26.2439V27.2195H152.991V26.2439H153.967ZM152.991 26.2439V27.2195H152.015V26.2439H152.991ZM152.015 27.2195V28.1951H151.04V27.2195H152.015ZM151.04 28.1951V29.1707H150.064V28.1951H151.04ZM155.918 28.1951V29.1707H154.942V28.1951H155.918ZM156.894 27.2195V28.1951H155.918V27.2195H156.894ZM157.869 26.2439V27.2195H156.894V26.2439H157.869ZM158.845 26.2439V27.2195H157.869V26.2439H158.845ZM159.82 27.2195V28.1951H158.845V27.2195H159.82ZM160.796 28.1951V29.1707H159.82V28.1951H160.796ZM157.869 27.2195V28.1951H156.894V27.2195H157.869ZM158.845 27.2195V28.1951H157.869V27.2195H158.845ZM156.894 28.1951V29.1707H155.918V28.1951H156.894ZM155.918 29.1707V30.1463H154.942V29.1707H155.918ZM159.82 28.1951V29.1707H158.845V28.1951H159.82ZM160.796 29.1707V30.1463H159.82V29.1707H160.796Z" fill="#9EFF00"/>
</svg>
